<svg width="680" height="320" viewBox="0 0 680 320" fill="none" xmlns="http://www.w3.org/2000/svg">
<path d="M620 20H60C48.9543 20 40 28.9543 40 40V280C40 291.046 48.9543 300 60 300H620C631.046 300 640 291.046 640 280V40C640 28.9543 631.046 20 620 20Z" fill="#F1EFE8" stroke="#5F5E5A" stroke-width="0.5"/>
<path d="M255.968 55V44.8182H257.201V53.9062H261.934V55H255.968ZM265.931 55.179C265.447 55.179 265.008 55.0878 264.614 54.9055C264.219 54.7199 263.906 54.4531 263.674 54.1051C263.442 53.7538 263.326 53.3295 263.326 52.8324C263.326 52.3949 263.412 52.0402 263.585 51.7685C263.757 51.4934 263.987 51.2779 264.276 51.1222C264.564 50.9664 264.882 50.8504 265.23 50.7741C265.582 50.6946 265.935 50.6316 266.289 50.5852C266.753 50.5256 267.13 50.4808 267.418 50.451C267.71 50.4179 267.922 50.3632 268.054 50.2869C268.19 50.2107 268.258 50.0781 268.258 49.8892V49.8494C268.258 49.3589 268.124 48.9777 267.855 48.706C267.59 48.4342 267.188 48.2983 266.647 48.2983C266.087 48.2983 265.648 48.4209 265.33 48.6662C265.012 48.9115 264.788 49.1733 264.659 49.4517L263.545 49.054C263.744 48.59 264.009 48.2287 264.34 47.9702C264.675 47.7083 265.04 47.526 265.434 47.4233C265.832 47.3172 266.223 47.2642 266.608 47.2642C266.853 47.2642 267.134 47.294 267.453 47.3537C267.774 47.41 268.084 47.5277 268.382 47.7067C268.684 47.8857 268.934 48.1558 269.133 48.517C269.332 48.8783 269.431 49.3622 269.431 49.9688V55H268.258V53.9659H268.198C268.119 54.1316 267.986 54.3089 267.801 54.4979C267.615 54.6868 267.368 54.8475 267.06 54.9801C266.752 55.1127 266.376 55.179 265.931 55.179ZM266.11 54.125C266.574 54.125 266.965 54.0339 267.284 53.8516C267.605 53.6693 267.847 53.4339 268.009 53.1456C268.175 52.8572 268.258 52.554 268.258 52.2358V51.1619C268.208 51.2216 268.099 51.2763 267.93 51.326C267.764 51.3724 267.572 51.4138 267.353 51.4503C267.138 51.4834 266.927 51.5133 266.722 51.5398C266.52 51.563 266.356 51.5829 266.23 51.5994C265.925 51.6392 265.64 51.7038 265.375 51.7933C265.113 51.8795 264.901 52.0104 264.738 52.1861C264.579 52.3584 264.5 52.5937 264.5 52.892C264.5 53.2997 264.65 53.608 264.952 53.8168C265.257 54.0223 265.643 54.125 266.11 54.125ZM272.746 50.4062V55H271.573V47.3636H272.706V48.5568H272.806C272.985 48.169 273.257 47.8575 273.621 47.6222C273.986 47.3835 274.456 47.2642 275.033 47.2642C275.55 47.2642 276.003 47.3703 276.39 47.5824C276.778 47.7912 277.08 48.1094 277.295 48.5369C277.511 48.9612 277.618 49.4981 277.618 50.1477V55H276.445V50.2273C276.445 49.6274 276.289 49.16 275.978 48.8253C275.666 48.4872 275.239 48.3182 274.695 48.3182C274.321 48.3182 273.986 48.3994 273.691 48.5618C273.399 48.7242 273.169 48.9612 273 49.2727C272.831 49.5843 272.746 49.9621 272.746 50.4062ZM282.646 55.1591C282.009 55.1591 281.448 54.9983 280.96 54.6768C280.473 54.352 280.092 53.8946 279.817 53.3047C279.542 52.7114 279.404 52.0104 279.404 51.2017C279.404 50.3996 279.542 49.7036 279.817 49.1136C280.092 48.5237 280.475 48.0679 280.965 47.7464C281.456 47.425 282.023 47.2642 282.666 47.2642C283.163 47.2642 283.556 47.3471 283.844 47.5128C284.136 47.6752 284.358 47.8608 284.51 48.0696C284.666 48.2751 284.787 48.4441 284.873 48.5767H284.973V44.8182H286.146V55H285.012V53.8267H284.873C284.787 53.9659 284.664 54.1416 284.505 54.3537C284.346 54.5625 284.119 54.7498 283.824 54.9155C283.529 55.0779 283.136 55.1591 282.646 55.1591ZM282.805 54.1051C283.276 54.1051 283.673 53.9825 283.998 53.7372C284.323 53.4886 284.57 53.1456 284.739 52.7081C284.908 52.2673 284.992 51.7585 284.992 51.1818C284.992 50.6117 284.91 50.1129 284.744 49.6854C284.578 49.2545 284.333 48.9197 284.008 48.6811C283.683 48.4392 283.282 48.3182 282.805 48.3182C282.308 48.3182 281.893 48.4458 281.562 48.701C281.234 48.9529 280.987 49.2959 280.821 49.7301C280.659 50.161 280.578 50.6449 280.578 51.1818C280.578 51.7254 280.661 52.2192 280.826 52.6634C280.995 53.1042 281.244 53.4555 281.572 53.7173C281.903 53.9759 282.314 54.1051 282.805 54.1051ZM288.458 55V47.3636H289.631V55H288.458ZM289.054 46.0909C288.826 46.0909 288.628 46.013 288.463 45.8572C288.3 45.7015 288.219 45.5142 288.219 45.2955C288.219 45.0767 288.3 44.8894 288.463 44.7337C288.628 44.5779 288.826 44.5 289.054 44.5C289.283 44.5 289.478 44.5779 289.641 44.7337C289.807 44.8894 289.889 45.0767 289.889 45.2955C289.889 45.5142 289.807 45.7015 289.641 45.8572C289.478 46.013 289.283 46.0909 289.054 46.0909ZM292.953 50.4062V55H291.78V47.3636H292.913V48.5568H293.013C293.192 48.169 293.464 47.8575 293.828 47.6222C294.193 47.3835 294.663 47.2642 295.24 47.2642C295.757 47.2642 296.21 47.3703 296.597 47.5824C296.985 47.7912 297.287 48.1094 297.502 48.5369C297.718 48.9612 297.825 49.4981 297.825 50.1477V55H296.652V50.2273C296.652 49.6274 296.496 49.16 296.185 48.8253C295.873 48.4872 295.446 48.3182 294.902 48.3182C294.528 48.3182 294.193 48.3994 293.898 48.5618C293.606 48.7242 293.376 48.9612 293.207 49.2727C293.038 49.5843 292.953 49.9621 292.953 50.4062ZM303.052 58.0227C302.485 58.0227 301.998 57.9498 301.59 57.804C301.182 57.6615 300.843 57.4725 300.571 57.2372C300.302 57.0052 300.089 56.7566 299.93 56.4915L300.864 55.8352C300.97 55.9744 301.105 56.1335 301.267 56.3125C301.429 56.4948 301.651 56.6522 301.933 56.7848C302.218 56.9207 302.591 56.9886 303.052 56.9886C303.668 56.9886 304.177 56.8395 304.578 56.5412C304.979 56.2429 305.18 55.7756 305.18 55.1392V53.5881H305.08C304.994 53.7273 304.871 53.8996 304.712 54.1051C304.556 54.3073 304.331 54.4879 304.036 54.647C303.744 54.8028 303.35 54.8807 302.853 54.8807C302.236 54.8807 301.683 54.7348 301.192 54.4432C300.705 54.1515 300.319 53.7273 300.034 53.1705C299.752 52.6136 299.611 51.9375 299.611 51.142C299.611 50.3598 299.749 49.6787 300.024 49.0987C300.299 48.5154 300.682 48.0646 301.172 47.7464C301.663 47.425 302.23 47.2642 302.873 47.2642C303.37 47.2642 303.764 47.3471 304.056 47.5128C304.351 47.6752 304.576 47.8608 304.732 48.0696C304.891 48.2751 305.014 48.4441 305.1 48.5767H305.219V47.3636H306.353V55.2188C306.353 55.875 306.204 56.4086 305.905 56.8196C305.61 57.2339 305.213 57.5372 304.712 57.7294C304.215 57.925 303.662 58.0227 303.052 58.0227ZM303.012 53.8267C303.483 53.8267 303.88 53.719 304.205 53.5036C304.53 53.2881 304.777 52.9782 304.946 52.5739C305.115 52.1695 305.199 51.6856 305.199 51.1222C305.199 50.572 305.117 50.0864 304.951 49.6655C304.785 49.2446 304.54 48.9148 304.215 48.6761C303.89 48.4375 303.489 48.3182 303.012 48.3182C302.515 48.3182 302.101 48.4441 301.769 48.696C301.441 48.9479 301.194 49.286 301.028 49.7102C300.866 50.1345 300.785 50.6051 300.785 51.1222C300.785 51.6525 300.868 52.1214 301.033 52.5291C301.202 52.9335 301.451 53.2517 301.779 53.4837C302.11 53.7124 302.521 53.8267 303.012 53.8267ZM312.438 57.8636V47.3636H313.572V48.5767H313.711C313.797 48.4441 313.916 48.2751 314.069 48.0696C314.225 47.8608 314.447 47.6752 314.735 47.5128C315.027 47.3471 315.421 47.2642 315.918 47.2642C316.561 47.2642 317.128 47.425 317.619 47.7464C318.109 48.0679 318.492 48.5237 318.767 49.1136C319.042 49.7036 319.18 50.3996 319.18 51.2017C319.18 52.0104 319.042 52.7114 318.767 53.3047C318.492 53.8946 318.111 54.352 317.623 54.6768C317.136 54.9983 316.574 55.1591 315.938 55.1591C315.448 55.1591 315.055 55.0779 314.76 54.9155C314.465 54.7498 314.238 54.5625 314.079 54.3537C313.92 54.1416 313.797 53.9659 313.711 53.8267H313.611V57.8636H312.438ZM313.592 51.1818C313.592 51.7585 313.676 52.2673 313.845 52.7081C314.014 53.1456 314.261 53.4886 314.586 53.7372C314.911 53.9825 315.308 54.1051 315.779 54.1051C316.27 54.1051 316.679 53.9759 317.007 53.7173C317.338 53.4555 317.587 53.1042 317.753 52.6634C317.922 52.2192 318.006 51.7254 318.006 51.1818C318.006 50.6449 317.923 50.161 317.758 49.7301C317.595 49.2959 317.348 48.9529 317.017 48.701C316.689 48.4458 316.276 48.3182 315.779 48.3182C315.302 48.3182 314.901 48.4392 314.576 48.6811C314.251 48.9197 314.006 49.2545 313.84 49.6854C313.674 50.1129 313.592 50.6117 313.592 51.1818ZM323.217 55.179C322.733 55.179 322.293 55.0878 321.899 54.9055C321.505 54.7199 321.191 54.4531 320.959 54.1051C320.727 53.7538 320.611 53.3295 320.611 52.8324C320.611 52.3949 320.698 52.0402 320.87 51.7685C321.042 51.4934 321.273 51.2779 321.561 51.1222C321.849 50.9664 322.168 50.8504 322.516 50.7741C322.867 50.6946 323.22 50.6316 323.574 50.5852C324.039 50.5256 324.415 50.4808 324.703 50.451C324.995 50.4179 325.207 50.3632 325.339 50.2869C325.475 50.2107 325.543 50.0781 325.543 49.8892V49.8494C325.543 49.3589 325.409 48.9777 325.141 48.706C324.875 48.4342 324.473 48.2983 323.932 48.2983C323.372 48.2983 322.933 48.4209 322.615 48.6662C322.297 48.9115 322.073 49.1733 321.944 49.4517L320.83 49.054C321.029 48.59 321.294 48.2287 321.626 47.9702C321.96 47.7083 322.325 47.526 322.719 47.4233C323.117 47.3172 323.508 47.2642 323.893 47.2642C324.138 47.2642 324.42 47.294 324.738 47.3537C325.059 47.41 325.369 47.5277 325.668 47.7067C325.969 47.8857 326.219 48.1558 326.418 48.517C326.617 48.8783 326.717 49.3622 326.717 49.9688V55H325.543V53.9659H325.484C325.404 54.1316 325.271 54.3089 325.086 54.4979C324.9 54.6868 324.653 54.8475 324.345 54.9801C324.037 55.1127 323.661 55.179 323.217 55.179ZM323.396 54.125C323.86 54.125 324.251 54.0339 324.569 53.8516C324.89 53.6693 325.132 53.4339 325.295 53.1456C325.46 52.8572 325.543 52.554 325.543 52.2358V51.1619C325.494 51.2216 325.384 51.2763 325.215 51.326C325.049 51.3724 324.857 51.4138 324.638 51.4503C324.423 51.4834 324.213 51.5133 324.007 51.5398C323.805 51.563 323.641 51.5829 323.515 51.5994C323.21 51.6392 322.925 51.7038 322.66 51.7933C322.398 51.8795 322.186 52.0104 322.023 52.1861C321.864 52.3584 321.785 52.5937 321.785 52.892C321.785 53.2997 321.936 53.608 322.237 53.8168C322.542 54.0223 322.928 54.125 323.396 54.125ZM331.94 58.0227C331.374 58.0227 330.886 57.9498 330.479 57.804C330.071 57.6615 329.731 57.4725 329.46 57.2372C329.191 57.0052 328.977 56.7566 328.818 56.4915L329.753 55.8352C329.859 55.9744 329.993 56.1335 330.156 56.3125C330.318 56.4948 330.54 56.6522 330.822 56.7848C331.107 56.9207 331.48 56.9886 331.94 56.9886C332.557 56.9886 333.066 56.8395 333.467 56.5412C333.868 56.2429 334.068 55.7756 334.068 55.1392V53.5881H333.969C333.883 53.7273 333.76 53.8996 333.601 54.1051C333.445 54.3073 333.22 54.4879 332.925 54.647C332.633 54.8028 332.239 54.8807 331.742 54.8807C331.125 54.8807 330.572 54.7348 330.081 54.4432C329.594 54.1515 329.208 53.7273 328.923 53.1705C328.641 52.6136 328.5 51.9375 328.5 51.142C328.5 50.3598 328.638 49.6787 328.913 49.0987C329.188 48.5154 329.571 48.0646 330.061 47.7464C330.552 47.425 331.118 47.2642 331.761 47.2642C332.259 47.2642 332.653 47.3471 332.945 47.5128C333.24 47.6752 333.465 47.8608 333.621 48.0696C333.78 48.2751 333.903 48.4441 333.989 48.5767H334.108V47.3636H335.242V55.2188C335.242 55.875 335.092 56.4086 334.794 56.8196C334.499 57.2339 334.101 57.5372 333.601 57.7294C333.104 57.925 332.55 58.0227 331.94 58.0227ZM331.901 53.8267C332.371 53.8267 332.769 53.719 333.094 53.5036C333.419 53.2881 333.666 52.9782 333.835 52.5739C334.004 52.1695 334.088 51.6856 334.088 51.1222C334.088 50.572 334.005 50.0864 333.84 49.6655C333.674 49.2446 333.429 48.9148 333.104 48.6761C332.779 48.4375 332.378 48.3182 331.901 48.3182C331.403 48.3182 330.989 48.4441 330.658 48.696C330.33 48.9479 330.083 49.286 329.917 49.7102C329.755 50.1345 329.673 50.6051 329.673 51.1222C329.673 51.6525 329.756 52.1214 329.922 52.5291C330.091 52.9335 330.34 53.2517 330.668 53.4837C330.999 53.7124 331.41 53.8267 331.901 53.8267ZM340.591 55.1591C339.855 55.1591 339.22 54.9967 338.687 54.6719C338.157 54.3438 337.747 53.8864 337.459 53.2997C337.174 52.7098 337.031 52.0237 337.031 51.2415C337.031 50.4593 337.174 49.7699 337.459 49.1733C337.747 48.5734 338.148 48.1061 338.662 47.7713C339.179 47.4332 339.782 47.2642 340.472 47.2642C340.869 47.2642 341.262 47.3305 341.65 47.4631C342.038 47.5956 342.391 47.8111 342.709 48.1094C343.027 48.4044 343.281 48.7955 343.47 49.2827C343.658 49.7699 343.753 50.3698 343.753 51.0824V51.5795H337.867V50.5653H342.56C342.56 50.1345 342.474 49.75 342.301 49.4119C342.132 49.0739 341.89 48.8071 341.575 48.6115C341.264 48.416 340.896 48.3182 340.472 48.3182C340.004 48.3182 339.6 48.4342 339.259 48.6662C338.921 48.8949 338.66 49.1932 338.478 49.5611C338.296 49.929 338.205 50.3234 338.205 50.7443V51.4205C338.205 51.9972 338.304 52.486 338.503 52.8871C338.705 53.2848 338.985 53.5881 339.343 53.7969C339.701 54.0024 340.117 54.1051 340.591 54.1051C340.899 54.1051 341.178 54.062 341.426 53.9759C341.678 53.8864 341.895 53.7538 342.078 53.5781C342.26 53.3991 342.401 53.1771 342.5 52.9119L343.634 53.2301C343.514 53.6146 343.314 53.9527 343.032 54.2443C342.75 54.5327 342.402 54.758 341.988 54.9205C341.574 55.0795 341.108 55.1591 340.591 55.1591ZM352.359 55.1591C351.722 55.1591 351.161 54.9983 350.673 54.6768C350.186 54.352 349.805 53.8946 349.53 53.3047C349.255 52.7114 349.117 52.0104 349.117 51.2017C349.117 50.3996 349.255 49.7036 349.53 49.1136C349.805 48.5237 350.188 48.0679 350.678 47.7464C351.169 47.425 351.736 47.2642 352.379 47.2642C352.876 47.2642 353.269 47.3471 353.557 47.5128C353.849 47.6752 354.071 47.8608 354.223 48.0696C354.379 48.2751 354.5 48.4441 354.586 48.5767H354.685V44.8182H355.859V55H354.725V53.8267H354.586C354.5 53.9659 354.377 54.1416 354.218 54.3537C354.059 54.5625 353.832 54.7498 353.537 54.9155C353.242 55.0779 352.849 55.1591 352.359 55.1591ZM352.518 54.1051C352.988 54.1051 353.386 53.9825 353.711 53.7372C354.036 53.4886 354.283 53.1456 354.452 52.7081C354.621 52.2673 354.705 51.7585 354.705 51.1818C354.705 50.6117 354.622 50.1129 354.457 49.6854C354.291 49.2545 354.046 48.9197 353.721 48.6811C353.396 48.4392 352.995 48.3182 352.518 48.3182C352.021 48.3182 351.606 48.4458 351.275 48.701C350.947 48.9529 350.7 49.2959 350.534 49.7301C350.372 50.161 350.291 50.6449 350.291 51.1818C350.291 51.7254 350.373 52.2192 350.539 52.6634C350.708 53.1042 350.957 53.4555 351.285 53.7173C351.616 53.9759 352.027 54.1051 352.518 54.1051ZM361.372 55.1591C360.636 55.1591 360.002 54.9967 359.468 54.6719C358.938 54.3438 358.528 53.8864 358.24 53.2997C357.955 52.7098 357.813 52.0237 357.813 51.2415C357.813 50.4593 357.955 49.7699 358.24 49.1733C358.528 48.5734 358.93 48.1061 359.443 47.7713C359.96 47.4332 360.564 47.2642 361.253 47.2642C361.651 47.2642 362.043 47.3305 362.431 47.4631C362.819 47.5956 363.172 47.8111 363.49 48.1094C363.808 48.4044 364.062 48.7955 364.251 49.2827C364.44 49.7699 364.534 50.3698 364.534 51.0824V51.5795H358.648V50.5653H363.341C363.341 50.1345 363.255 49.75 363.082 49.4119C362.913 49.0739 362.671 48.8071 362.357 48.6115C362.045 48.416 361.677 48.3182 361.253 48.3182C360.786 48.3182 360.381 48.4342 360.04 48.6662C359.702 48.8949 359.442 49.1932 359.259 49.5611C359.077 49.929 358.986 50.3234 358.986 50.7443V51.4205C358.986 51.9972 359.085 52.486 359.284 52.8871C359.486 53.2848 359.766 53.5881 360.124 53.7969C360.482 54.0024 360.898 54.1051 361.372 54.1051C361.68 54.1051 361.959 54.062 362.207 53.9759C362.459 53.8864 362.676 53.7538 362.859 53.5781C363.041 53.3991 363.182 53.1771 363.281 52.9119L364.415 53.2301C364.296 53.6146 364.095 53.9527 363.813 54.2443C363.532 54.5327 363.184 54.758 362.769 54.9205C362.355 55.0795 361.889 55.1591 361.372 55.1591ZM371.728 49.0739L370.674 49.3722C370.608 49.1965 370.51 49.0258 370.381 48.8601C370.255 48.6911 370.082 48.5518 369.864 48.4425C369.645 48.3331 369.365 48.2784 369.024 48.2784C368.556 48.2784 368.167 48.3861 367.855 48.6016C367.547 48.8137 367.393 49.0838 367.393 49.4119C367.393 49.7036 367.499 49.9339 367.711 50.103C367.923 50.272 368.255 50.4129 368.705 50.5256L369.839 50.804C370.522 50.9697 371.03 51.2232 371.365 51.5646C371.7 51.9027 371.867 52.3385 371.867 52.8722C371.867 53.3097 371.741 53.7008 371.489 54.0455C371.241 54.3902 370.893 54.6619 370.445 54.8608C369.998 55.0597 369.478 55.1591 368.884 55.1591C368.105 55.1591 367.461 54.9901 366.95 54.652C366.44 54.3139 366.117 53.8201 365.981 53.1705L367.095 52.892C367.201 53.303 367.401 53.6113 367.696 53.8168C367.994 54.0223 368.384 54.125 368.864 54.125C369.411 54.125 369.845 54.009 370.167 53.777C370.492 53.5417 370.654 53.2599 370.654 52.9318C370.654 52.6667 370.561 52.4446 370.376 52.2656C370.19 52.0833 369.905 51.9474 369.521 51.858L368.248 51.5597C367.549 51.3939 367.035 51.1371 366.707 50.7891C366.382 50.4377 366.22 49.9986 366.22 49.4716C366.22 49.0407 366.341 48.6596 366.582 48.3281C366.828 47.9967 367.161 47.7365 367.582 47.5476C368.006 47.3587 368.487 47.2642 369.024 47.2642C369.779 47.2642 370.372 47.4299 370.803 47.7614C371.238 48.0928 371.546 48.5303 371.728 49.0739ZM373.633 55V47.3636H374.807V55H373.633ZM374.23 46.0909C374.001 46.0909 373.804 46.013 373.638 45.8572C373.476 45.7015 373.395 45.5142 373.395 45.2955C373.395 45.0767 373.476 44.8894 373.638 44.7337C373.804 44.5779 374.001 44.5 374.23 44.5C374.459 44.5 374.654 44.5779 374.817 44.7337C374.982 44.8894 375.065 45.0767 375.065 45.2955C375.065 45.5142 374.982 45.7015 374.817 45.8572C374.654 46.013 374.459 46.0909 374.23 46.0909ZM380.038 58.0227C379.471 58.0227 378.984 57.9498 378.576 57.804C378.169 57.6615 377.829 57.4725 377.557 57.2372C377.289 57.0052 377.075 56.7566 376.916 56.4915L377.851 55.8352C377.957 55.9744 378.091 56.1335 378.253 56.3125C378.416 56.4948 378.638 56.6522 378.919 56.7848C379.205 56.9207 379.577 56.9886 380.038 56.9886C380.655 56.9886 381.163 56.8395 381.564 56.5412C381.965 56.2429 382.166 55.7756 382.166 55.1392V53.5881H382.066C381.98 53.7273 381.858 53.8996 381.699 54.1051C381.543 54.3073 381.317 54.4879 381.022 54.647C380.731 54.8028 380.336 54.8807 379.839 54.8807C379.223 54.8807 378.669 54.7348 378.179 54.4432C377.691 54.1515 377.305 53.7273 377.02 53.1705C376.739 52.6136 376.598 51.9375 376.598 51.142C376.598 50.3598 376.735 49.6787 377.01 49.0987C377.285 48.5154 377.668 48.0646 378.159 47.7464C378.649 47.425 379.216 47.2642 379.859 47.2642C380.356 47.2642 380.751 47.3471 381.042 47.5128C381.337 47.6752 381.563 47.8608 381.718 48.0696C381.878 48.2751 382 48.4441 382.086 48.5767H382.206V47.3636H383.339V55.2188C383.339 55.875 383.19 56.4086 382.892 56.8196C382.597 57.2339 382.199 57.5372 381.699 57.7294C381.201 57.925 380.648 58.0227 380.038 58.0227ZM379.998 53.8267C380.469 53.8267 380.867 53.719 381.191 53.5036C381.516 53.2881 381.763 52.9782 381.932 52.5739C382.101 52.1695 382.186 51.6856 382.186 51.1222C382.186 50.572 382.103 50.0864 381.937 49.6655C381.772 49.2446 381.526 48.9148 381.201 48.6761C380.877 48.4375 380.476 48.3182 379.998 48.3182C379.501 48.3182 379.087 48.4441 378.755 48.696C378.427 48.9479 378.18 49.286 378.015 49.7102C377.852 50.1345 377.771 50.6051 377.771 51.1222C377.771 51.6525 377.854 52.1214 378.02 52.5291C378.189 52.9335 378.437 53.2517 378.765 53.4837C379.097 53.7124 379.508 53.8267 379.998 53.8267ZM386.66 50.4062V55H385.487V47.3636H386.62V48.5568H386.72C386.899 48.169 387.171 47.8575 387.535 47.6222C387.9 47.3835 388.37 47.2642 388.947 47.2642C389.464 47.2642 389.917 47.3703 390.304 47.5824C390.692 47.7912 390.994 48.1094 391.209 48.5369C391.425 48.9612 391.532 49.4981 391.532 50.1477V55H390.359V50.2273C390.359 49.6274 390.203 49.16 389.892 48.8253C389.58 48.4872 389.153 48.3182 388.609 48.3182C388.235 48.3182 387.9 48.3994 387.605 48.5618C387.313 48.7242 387.083 48.9612 386.914 49.2727C386.745 49.5843 386.66 49.9621 386.66 50.4062ZM400.935 47.3636V48.358H396.978V47.3636H400.935ZM398.131 45.5341H399.304V52.8125C399.304 53.1439 399.352 53.3925 399.448 53.5582C399.548 53.7206 399.674 53.83 399.826 53.8864C399.982 53.9394 400.146 53.9659 400.318 53.9659C400.448 53.9659 400.554 53.9593 400.637 53.946C400.719 53.9295 400.786 53.9162 400.835 53.9062L401.074 54.9602C400.995 54.9901 400.884 55.0199 400.741 55.0497C400.599 55.0829 400.418 55.0994 400.199 55.0994C399.868 55.0994 399.543 55.0282 399.225 54.8857C398.91 54.7431 398.648 54.526 398.439 54.2344C398.234 53.9427 398.131 53.5748 398.131 53.1307V45.5341ZM402.7 55V47.3636H403.873V55H402.7ZM403.296 46.0909C403.068 46.0909 402.871 46.013 402.705 45.8572C402.542 45.7015 402.461 45.5142 402.461 45.2955C402.461 45.0767 402.542 44.8894 402.705 44.7337C402.871 44.5779 403.068 44.5 403.296 44.5C403.525 44.5 403.721 44.5779 403.883 44.7337C404.049 44.8894 404.132 45.0767 404.132 45.2955C404.132 45.5142 404.049 45.7015 403.883 45.8572C403.721 46.013 403.525 46.0909 403.296 46.0909ZM406.022 55V47.3636H407.156V48.5568H407.255C407.414 48.1491 407.671 47.8326 408.026 47.6072C408.38 47.3786 408.806 47.2642 409.303 47.2642C409.807 47.2642 410.226 47.3786 410.561 47.6072C410.899 47.8326 411.163 48.1491 411.352 48.5568H411.431C411.627 48.1624 411.92 47.8492 412.311 47.6172C412.702 47.3819 413.171 47.2642 413.718 47.2642C414.401 47.2642 414.959 47.478 415.394 47.9055C415.828 48.3298 416.045 48.991 416.045 49.8892V55H414.872V49.8892C414.872 49.3258 414.717 48.9231 414.409 48.6811C414.101 48.4392 413.738 48.3182 413.32 48.3182C412.783 48.3182 412.368 48.4806 412.073 48.8054C411.778 49.1269 411.63 49.5346 411.63 50.0284V55H410.437V49.7699C410.437 49.3357 410.296 48.986 410.014 48.7209C409.733 48.4524 409.37 48.3182 408.926 48.3182C408.621 48.3182 408.336 48.3994 408.07 48.5618C407.809 48.7242 407.596 48.9496 407.434 49.2379C407.275 49.523 407.195 49.8527 407.195 50.2273V55H406.022ZM421.392 55.1591C420.656 55.1591 420.021 54.9967 419.488 54.6719C418.957 54.3438 418.548 53.8864 418.26 53.2997C417.975 52.7098 417.832 52.0237 417.832 51.2415C417.832 50.4593 417.975 49.7699 418.26 49.1733C418.548 48.5734 418.949 48.1061 419.463 47.7713C419.98 47.4332 420.583 47.2642 421.272 47.2642C421.67 47.2642 422.063 47.3305 422.451 47.4631C422.839 47.5956 423.191 47.8111 423.51 48.1094C423.828 48.4044 424.081 48.7955 424.27 49.2827C424.459 49.7699 424.554 50.3698 424.554 51.0824V51.5795H418.667V50.5653H423.361C423.361 50.1345 423.274 49.75 423.102 49.4119C422.933 49.0739 422.691 48.8071 422.376 48.6115C422.065 48.416 421.697 48.3182 421.272 48.3182C420.805 48.3182 420.401 48.4342 420.059 48.6662C419.721 48.8949 419.461 49.1932 419.279 49.5611C419.097 49.929 419.005 50.3234 419.005 50.7443V51.4205C419.005 51.9972 419.105 52.486 419.304 52.8871C419.506 53.2848 419.786 53.5881 420.144 53.7969C420.502 54.0024 420.918 54.1051 421.392 54.1051C421.7 54.1051 421.978 54.062 422.227 53.9759C422.479 53.8864 422.696 53.7538 422.878 53.5781C423.061 53.3991 423.201 53.1771 423.301 52.9119L424.434 53.2301C424.315 53.6146 424.115 53.9527 423.833 54.2443C423.551 54.5327 423.203 54.758 422.789 54.9205C422.374 55.0795 421.909 55.1591 421.392 55.1591Z" fill="#444441"/>
<path d="M284.659 71.3182C284.659 70.2443 284.798 69.2571 285.077 68.3565C285.358 67.4531 285.759 66.6222 286.279 65.8636H287.165C286.96 66.1449 286.769 66.4915 286.59 66.9034C286.414 67.3125 286.259 67.7628 286.125 68.2543C285.992 68.7429 285.887 69.2486 285.81 69.7713C285.736 70.294 285.699 70.8097 285.699 71.3182C285.699 71.9943 285.764 72.6804 285.895 73.3764C286.026 74.0724 286.202 74.7187 286.423 75.3153C286.645 75.9119 286.892 76.3977 287.165 76.7727H286.279C285.759 76.0142 285.358 75.1847 285.077 74.2841C284.798 73.3807 284.659 72.392 284.659 71.3182ZM288.649 75V68.4545H289.655V75H288.649ZM289.16 67.3636C288.964 67.3636 288.795 67.2969 288.653 67.1634C288.514 67.0298 288.444 66.8693 288.444 66.6818C288.444 66.4943 288.514 66.3338 288.653 66.2003C288.795 66.0668 288.964 66 289.16 66C289.356 66 289.524 66.0668 289.663 66.2003C289.805 66.3338 289.876 66.4943 289.876 66.6818C289.876 66.8693 289.805 67.0298 289.663 67.1634C289.524 67.2969 289.356 67.3636 289.16 67.3636ZM292.502 71.0625V75H291.497V68.4545H292.468V69.4773H292.553C292.707 69.1449 292.94 68.8778 293.252 68.6761C293.565 68.4716 293.968 68.3693 294.463 68.3693C294.906 68.3693 295.294 68.4602 295.626 68.642C295.958 68.821 296.217 69.0938 296.401 69.4602C296.586 69.8239 296.678 70.2841 296.678 70.8409V75H295.673V70.9091C295.673 70.3949 295.539 69.9943 295.272 69.7074C295.005 69.4176 294.639 69.2727 294.173 69.2727C293.852 69.2727 293.565 69.3423 293.312 69.4815C293.062 69.6207 292.865 69.8239 292.72 70.0909C292.575 70.358 292.502 70.6818 292.502 71.0625ZM301.175 75.1364C300.562 75.1364 300.033 74.9915 299.59 74.7017C299.147 74.4119 298.806 74.0128 298.567 73.5043C298.329 72.9957 298.209 72.4148 298.209 71.7614C298.209 71.0966 298.331 70.5099 298.576 70.0014C298.823 69.4901 299.167 69.0909 299.607 68.804C300.05 68.5142 300.567 68.3693 301.158 68.3693C301.618 68.3693 302.033 68.4545 302.403 68.625C302.772 68.7955 303.074 69.0341 303.31 69.3409C303.546 69.6477 303.692 70.0057 303.749 70.4148H302.743C302.667 70.1165 302.496 69.8523 302.232 69.6222C301.971 69.3892 301.618 69.2727 301.175 69.2727C300.783 69.2727 300.439 69.375 300.144 69.5795C299.851 69.7812 299.623 70.0668 299.458 70.4361C299.296 70.8026 299.215 71.233 299.215 71.7273C299.215 72.233 299.295 72.6733 299.454 73.0483C299.616 73.4233 299.843 73.7145 300.135 73.9219C300.431 74.1293 300.778 74.233 301.175 74.233C301.437 74.233 301.674 74.1875 301.887 74.0966C302.1 74.0057 302.28 73.875 302.428 73.7045C302.576 73.5341 302.681 73.3295 302.743 73.0909H303.749C303.692 73.4773 303.552 73.8253 303.327 74.1349C303.106 74.4418 302.812 74.6861 302.445 74.8679C302.081 75.0469 301.658 75.1364 301.175 75.1364ZM306.225 66.2727V75H305.219V66.2727H306.225ZM312.192 72.3239V68.4545H313.198V75H312.192V73.892H312.124C311.97 74.2244 311.732 74.5071 311.408 74.7401C311.084 74.9702 310.675 75.0852 310.181 75.0852C309.771 75.0852 309.408 74.9957 309.09 74.8168C308.771 74.6349 308.521 74.3622 308.34 73.9986C308.158 73.6321 308.067 73.1705 308.067 72.6136V68.4545H309.073V72.5455C309.073 73.0227 309.206 73.4034 309.473 73.6875C309.743 73.9716 310.087 74.1136 310.504 74.1136C310.754 74.1136 311.009 74.0497 311.267 73.9219C311.529 73.794 311.747 73.598 311.923 73.3338C312.102 73.0696 312.192 72.733 312.192 72.3239ZM317.511 75.1364C316.966 75.1364 316.484 74.9986 316.067 74.723C315.649 74.4446 315.322 74.0526 315.086 73.5469C314.851 73.0384 314.733 72.4375 314.733 71.7443C314.733 71.0568 314.851 70.4602 315.086 69.9545C315.322 69.4489 315.65 69.0582 316.071 68.7827C316.491 68.5071 316.977 68.3693 317.528 68.3693C317.954 68.3693 318.291 68.4403 318.538 68.5824C318.788 68.7216 318.979 68.8807 319.109 69.0597C319.243 69.2358 319.346 69.3807 319.42 69.4943H319.506V66.2727H320.511V75H319.54V73.9943H319.42C319.346 74.1136 319.241 74.2642 319.105 74.446C318.969 74.625 318.774 74.7855 318.521 74.9276C318.268 75.0668 317.932 75.1364 317.511 75.1364ZM317.648 74.233C318.051 74.233 318.392 74.1278 318.67 73.9176C318.949 73.7045 319.16 73.4105 319.305 73.0355C319.45 72.6577 319.523 72.2216 319.523 71.7273C319.523 71.2386 319.452 70.8111 319.309 70.4446C319.167 70.0753 318.957 69.7884 318.679 69.5838C318.4 69.3764 318.057 69.2727 317.648 69.2727C317.221 69.2727 316.866 69.3821 316.582 69.6009C316.301 69.8168 316.089 70.1108 315.947 70.483C315.808 70.8523 315.738 71.267 315.738 71.7273C315.738 72.1932 315.809 72.6165 315.952 72.9972C316.096 73.375 316.309 73.6761 316.591 73.9006C316.875 74.1222 317.227 74.233 317.648 74.233ZM322.493 75V68.4545H323.498V75H322.493ZM323.004 67.3636C322.808 67.3636 322.639 67.2969 322.497 67.1634C322.358 67.0298 322.288 66.8693 322.288 66.6818C322.288 66.4943 322.358 66.3338 322.497 66.2003C322.639 66.0668 322.808 66 323.004 66C323.2 66 323.368 66.0668 323.507 66.2003C323.649 66.3338 323.72 66.4943 323.72 66.6818C323.72 66.8693 323.649 67.0298 323.507 67.1634C323.368 67.2969 323.2 67.3636 323.004 67.3636ZM326.346 71.0625V75H325.34V68.4545H326.312V69.4773H326.397C326.551 69.1449 326.784 68.8778 327.096 68.6761C327.409 68.4716 327.812 68.3693 328.306 68.3693C328.749 68.3693 329.137 68.4602 329.47 68.642C329.802 68.821 330.061 69.0938 330.245 69.4602C330.43 69.8239 330.522 70.2841 330.522 70.8409V75H329.517V70.9091C329.517 70.3949 329.383 69.9943 329.116 69.7074C328.849 69.4176 328.482 69.2727 328.017 69.2727C327.695 69.2727 327.409 69.3423 327.156 69.4815C326.906 69.6207 326.708 69.8239 326.563 70.0909C326.419 70.358 326.346 70.6818 326.346 71.0625ZM335.002 77.5909C334.516 77.5909 334.099 77.5284 333.749 77.4034C333.4 77.2812 333.108 77.1193 332.876 76.9176C332.645 76.7188 332.462 76.5057 332.326 76.2784L333.127 75.7159C333.218 75.8352 333.333 75.9716 333.472 76.125C333.611 76.2812 333.802 76.4162 334.043 76.5298C334.287 76.6463 334.607 76.7045 335.002 76.7045C335.53 76.7045 335.966 76.5767 336.31 76.321C336.654 76.0653 336.826 75.6648 336.826 75.1193V73.7898H336.741C336.667 73.9091 336.562 74.0568 336.425 74.233C336.292 74.4062 336.099 74.5611 335.846 74.6974C335.596 74.831 335.258 74.8977 334.831 74.8977C334.303 74.8977 333.829 74.7727 333.408 74.5227C332.991 74.2727 332.66 73.9091 332.415 73.4318C332.174 72.9545 332.053 72.375 332.053 71.6932C332.053 71.0227 332.171 70.4389 332.407 69.9418C332.643 69.4418 332.971 69.0554 333.391 68.7827C333.812 68.5071 334.297 68.3693 334.849 68.3693C335.275 68.3693 335.613 68.4403 335.863 68.5824C336.116 68.7216 336.309 68.8807 336.442 69.0597C336.579 69.2358 336.684 69.3807 336.758 69.4943H336.86V68.4545H337.831V75.1875C337.831 75.75 337.704 76.2074 337.448 76.5597C337.195 76.9148 336.854 77.1747 336.425 77.3395C335.999 77.5071 335.525 77.5909 335.002 77.5909ZM334.968 73.9943C335.371 73.9943 335.712 73.902 335.991 73.7173C336.269 73.5327 336.481 73.267 336.626 72.9205C336.77 72.5739 336.843 72.1591 336.843 71.6761C336.843 71.2045 336.772 70.7884 336.63 70.4276C336.488 70.0668 336.278 69.7841 335.999 69.5795C335.721 69.375 335.377 69.2727 334.968 69.2727C334.542 69.2727 334.187 69.3807 333.903 69.5966C333.621 69.8125 333.41 70.1023 333.268 70.4659C333.128 70.8295 333.059 71.233 333.059 71.6761C333.059 72.1307 333.13 72.5327 333.272 72.8821C333.417 73.2287 333.63 73.5014 333.911 73.7003C334.195 73.8963 334.547 73.9943 334.968 73.9943ZM343.047 75V68.4545H344.019V69.4432H344.087C344.206 69.1193 344.422 68.8565 344.735 68.6548C345.047 68.4531 345.4 68.3523 345.792 68.3523C345.866 68.3523 345.958 68.3537 346.069 68.3565C346.18 68.3594 346.263 68.3636 346.32 68.3693V69.392C346.286 69.3835 346.208 69.3707 346.086 69.3537C345.966 69.3338 345.84 69.3239 345.706 69.3239C345.388 69.3239 345.104 69.3906 344.854 69.5241C344.607 69.6548 344.411 69.8366 344.266 70.0696C344.124 70.2997 344.053 70.5625 344.053 70.858V75H343.047ZM350.057 75.1364C349.427 75.1364 348.883 74.9972 348.425 74.7188C347.971 74.4375 347.62 74.0455 347.373 73.5426C347.128 73.0369 347.006 72.4489 347.006 71.7784C347.006 71.108 347.128 70.517 347.373 70.0057C347.62 69.4915 347.964 69.0909 348.404 68.804C348.847 68.5142 349.364 68.3693 349.955 68.3693C350.296 68.3693 350.633 68.4261 350.965 68.5398C351.297 68.6534 351.6 68.8381 351.873 69.0938C352.145 69.3466 352.363 69.6818 352.525 70.0994C352.687 70.517 352.768 71.0312 352.768 71.642V72.0682H347.722V71.1989H351.745C351.745 70.8295 351.671 70.5 351.523 70.2102C351.378 69.9205 351.171 69.6918 350.901 69.5241C350.634 69.3565 350.319 69.2727 349.955 69.2727C349.555 69.2727 349.208 69.3722 348.915 69.571C348.626 69.767 348.403 70.0227 348.246 70.3381C348.09 70.6534 348.012 70.9915 348.012 71.3523V71.9318C348.012 72.4261 348.097 72.8452 348.268 73.1889C348.441 73.5298 348.681 73.7898 348.988 73.9688C349.295 74.1449 349.651 74.233 350.057 74.233C350.322 74.233 350.56 74.196 350.773 74.1222C350.989 74.0455 351.175 73.9318 351.331 73.7812C351.488 73.6278 351.608 73.4375 351.694 73.2102L352.665 73.483C352.563 73.8125 352.391 74.1023 352.15 74.3523C351.908 74.5994 351.61 74.7926 351.255 74.9318C350.9 75.0682 350.501 75.1364 350.057 75.1364ZM359.45 68.4545L357.03 75H356.007L353.587 68.4545H354.678L356.485 73.6705H356.553L358.36 68.4545H359.45ZM360.778 75V68.4545H361.784V75H360.778ZM361.289 67.3636C361.093 67.3636 360.924 67.2969 360.782 67.1634C360.643 67.0298 360.573 66.8693 360.573 66.6818C360.573 66.4943 360.643 66.3338 360.782 66.2003C360.924 66.0668 361.093 66 361.289 66C361.485 66 361.653 66.0668 361.792 66.2003C361.934 66.3338 362.005 66.4943 362.005 66.6818C362.005 66.8693 361.934 67.0298 361.792 67.1634C361.653 67.2969 361.485 67.3636 361.289 67.3636ZM368.262 69.9205L367.358 70.1761C367.302 70.0256 367.218 69.8793 367.107 69.7372C366.999 69.5923 366.851 69.473 366.664 69.3793C366.476 69.2855 366.236 69.2386 365.944 69.2386C365.543 69.2386 365.209 69.331 364.942 69.5156C364.678 69.6974 364.546 69.929 364.546 70.2102C364.546 70.4602 364.637 70.6577 364.819 70.8026C365.001 70.9474 365.285 71.0682 365.671 71.1648L366.643 71.4034C367.228 71.5455 367.664 71.7628 367.951 72.0554C368.238 72.3452 368.381 72.7187 368.381 73.1761C368.381 73.5511 368.273 73.8864 368.057 74.1818C367.844 74.4773 367.546 74.7102 367.162 74.8807C366.779 75.0511 366.333 75.1364 365.824 75.1364C365.157 75.1364 364.604 74.9915 364.167 74.7017C363.729 74.4119 363.452 73.9886 363.336 73.4318L364.29 73.1932C364.381 73.5455 364.553 73.8097 364.806 73.9858C365.062 74.1619 365.395 74.25 365.807 74.25C366.276 74.25 366.648 74.1506 366.924 73.9517C367.202 73.75 367.341 73.5085 367.341 73.2273C367.341 73 367.262 72.8097 367.103 72.6562C366.944 72.5 366.699 72.3835 366.37 72.3068L365.279 72.0511C364.68 71.9091 364.239 71.6889 363.958 71.3906C363.68 71.0895 363.54 70.7131 363.54 70.2614C363.54 69.892 363.644 69.5653 363.851 69.2812C364.062 68.9972 364.347 68.7741 364.708 68.6122C365.072 68.4503 365.483 68.3693 365.944 68.3693C366.591 68.3693 367.1 68.5114 367.469 68.7955C367.841 69.0795 368.106 69.4545 368.262 69.9205ZM369.895 75V68.4545H370.901V75H369.895ZM370.406 67.3636C370.21 67.3636 370.041 67.2969 369.899 67.1634C369.76 67.0298 369.691 66.8693 369.691 66.6818C369.691 66.4943 369.76 66.3338 369.899 66.2003C370.041 66.0668 370.21 66 370.406 66C370.602 66 370.77 66.0668 370.909 66.2003C371.051 66.3338 371.122 66.4943 371.122 66.6818C371.122 66.8693 371.051 67.0298 370.909 67.1634C370.77 67.2969 370.602 67.3636 370.406 67.3636ZM375.402 75.1364C374.811 75.1364 374.292 74.9957 373.846 74.7145C373.403 74.4332 373.057 74.0398 372.807 73.5341C372.559 73.0284 372.436 72.4375 372.436 71.7614C372.436 71.0795 372.559 70.4844 372.807 69.9759C373.057 69.4673 373.403 69.0724 373.846 68.7912C374.292 68.5099 374.811 68.3693 375.402 68.3693C375.993 68.3693 376.51 68.5099 376.953 68.7912C377.399 69.0724 377.746 69.4673 377.993 69.9759C378.243 70.4844 378.368 71.0795 378.368 71.7614C378.368 72.4375 378.243 73.0284 377.993 73.5341C377.746 74.0398 377.399 74.4332 376.953 74.7145C376.51 74.9957 375.993 75.1364 375.402 75.1364ZM375.402 74.233C375.851 74.233 376.22 74.1179 376.51 73.8878C376.8 73.6577 377.014 73.3551 377.153 72.9801C377.292 72.6051 377.362 72.1989 377.362 71.7614C377.362 71.3239 377.292 70.9162 377.153 70.5384C377.014 70.1605 376.8 69.8551 376.51 69.6222C376.22 69.3892 375.851 69.2727 375.402 69.2727C374.953 69.2727 374.584 69.3892 374.294 69.6222C374.004 69.8551 373.79 70.1605 373.65 70.5384C373.511 70.9162 373.442 71.3239 373.442 71.7614C373.442 72.1989 373.511 72.6051 373.65 72.9801C373.79 73.3551 374.004 73.6577 374.294 73.8878C374.584 74.1179 374.953 74.233 375.402 74.233ZM380.909 71.0625V75H379.903V68.4545H380.874V69.4773H380.96C381.113 69.1449 381.346 68.8778 381.659 68.6761C381.971 68.4716 382.374 68.3693 382.869 68.3693C383.312 68.3693 383.7 68.4602 384.032 68.642C384.365 68.821 384.623 69.0938 384.808 69.4602C384.992 69.8239 385.085 70.2841 385.085 70.8409V75H384.079V70.9091C384.079 70.3949 383.945 69.9943 383.678 69.7074C383.411 69.4176 383.045 69.2727 382.579 69.2727C382.258 69.2727 381.971 69.3423 381.718 69.4815C381.468 69.6207 381.271 69.8239 381.126 70.0909C380.981 70.358 380.909 70.6818 380.909 71.0625ZM391.559 69.9205L390.655 70.1761C390.599 70.0256 390.515 69.8793 390.404 69.7372C390.296 69.5923 390.148 69.473 389.961 69.3793C389.773 69.2855 389.533 69.2386 389.241 69.2386C388.84 69.2386 388.506 69.331 388.239 69.5156C387.975 69.6974 387.843 69.929 387.843 70.2102C387.843 70.4602 387.934 70.6577 388.116 70.8026C388.297 70.9474 388.581 71.0682 388.968 71.1648L389.939 71.4034C390.525 71.5455 390.961 71.7628 391.248 72.0554C391.535 72.3452 391.678 72.7187 391.678 73.1761C391.678 73.5511 391.57 73.8864 391.354 74.1818C391.141 74.4773 390.843 74.7102 390.459 74.8807C390.076 75.0511 389.63 75.1364 389.121 75.1364C388.454 75.1364 387.901 74.9915 387.464 74.7017C387.026 74.4119 386.749 73.9886 386.633 73.4318L387.587 73.1932C387.678 73.5455 387.85 73.8097 388.103 73.9858C388.358 74.1619 388.692 74.25 389.104 74.25C389.573 74.25 389.945 74.1506 390.221 73.9517C390.499 73.75 390.638 73.5085 390.638 73.2273C390.638 73 390.559 72.8097 390.4 72.6562C390.241 72.5 389.996 72.3835 389.667 72.3068L388.576 72.0511C387.976 71.9091 387.536 71.6889 387.255 71.3906C386.976 71.0895 386.837 70.7131 386.837 70.2614C386.837 69.892 386.941 69.5653 387.148 69.2812C387.358 68.9972 387.644 68.7741 388.005 68.6122C388.368 68.4503 388.78 68.3693 389.241 68.3693C389.888 68.3693 390.397 68.5114 390.766 68.7955C391.138 69.0795 391.403 69.4545 391.559 69.9205ZM395.34 71.3182C395.34 72.392 395.199 73.3807 394.918 74.2841C394.639 75.1847 394.24 76.0142 393.72 76.7727H392.834C393.039 76.4915 393.229 76.1449 393.405 75.733C393.584 75.3239 393.74 74.875 393.874 74.3864C394.007 73.8949 394.111 73.3878 394.185 72.8651C394.262 72.3395 394.3 71.8239 394.3 71.3182C394.3 70.642 394.235 69.956 394.104 69.2599C393.973 68.5639 393.797 67.9176 393.575 67.321C393.354 66.7244 393.107 66.2386 392.834 65.8636H393.72C394.24 66.6222 394.639 67.4531 394.918 68.3565C395.199 69.2571 395.34 70.2443 395.34 71.3182Z" fill="#5F5E5A"/>
<path d="M200 271C244.183 271 280 235.183 280 191C280 146.817 244.183 111 200 111C155.817 111 120 146.817 120 191C120 235.183 155.817 271 200 271Z" fill="#F1EFE8" stroke="#5F5E5A" stroke-width="16"/>
<path d="M280 191C280 146.817 244.183 111 200 111C155.817 111 120 146.817 120 191C120 235.183 155.817 271 200 271C244.183 271 280 235.183 280 191Z" fill="#F1EFE8" stroke="#0C447C" stroke-width="16" stroke-linecap="round"/>
<path d="M276 127.5C276 112.864 264.136 101 249.5 101C234.864 101 223 112.864 223 127.5C223 142.136 234.864 154 249.5 154C264.136 154 276 142.136 276 127.5Z" fill="#F1EFE8" stroke="#F1EFE8" stroke-width="16" stroke-linecap="round"/>
<path d="M190.056 185.139C189.373 185.139 188.77 185.018 188.246 184.776C187.726 184.531 187.32 184.195 187.028 183.767C186.736 183.336 186.592 182.846 186.595 182.295C186.592 181.865 186.677 181.467 186.849 181.102C187.021 180.734 187.257 180.428 187.555 180.183C187.856 179.934 188.193 179.777 188.564 179.71V179.651C188.077 179.525 187.689 179.251 187.401 178.83C187.112 178.406 186.97 177.924 186.973 177.384C186.97 176.866 187.101 176.404 187.366 175.996C187.631 175.589 187.996 175.267 188.46 175.032C188.927 174.797 189.459 174.679 190.056 174.679C190.646 174.679 191.173 174.797 191.637 175.032C192.101 175.267 192.465 175.589 192.73 175.996C192.999 176.404 193.135 176.866 193.138 177.384C193.135 177.924 192.987 178.406 192.695 178.83C192.407 179.251 192.024 179.525 191.547 179.651V179.71C191.915 179.777 192.246 179.934 192.541 180.183C192.836 180.428 193.072 180.734 193.247 181.102C193.423 181.467 193.512 181.865 193.516 182.295C193.512 182.846 193.363 183.336 193.068 183.767C192.777 184.195 192.371 184.531 191.85 184.776C191.333 185.018 190.735 185.139 190.056 185.139ZM190.056 184.045C190.516 184.045 190.914 183.971 191.249 183.822C191.584 183.673 191.842 183.462 192.024 183.19C192.207 182.919 192.299 182.6 192.303 182.236C192.299 181.851 192.2 181.512 192.004 181.217C191.809 180.922 191.542 180.69 191.204 180.521C190.869 180.352 190.486 180.267 190.056 180.267C189.621 180.267 189.234 180.352 188.892 180.521C188.554 180.69 188.287 180.922 188.092 181.217C187.9 181.512 187.805 181.851 187.808 182.236C187.805 182.6 187.893 182.919 188.072 183.19C188.254 183.462 188.514 183.673 188.852 183.822C189.191 183.971 189.592 184.045 190.056 184.045ZM190.056 179.213C190.42 179.213 190.743 179.14 191.025 178.994C191.31 178.848 191.534 178.645 191.696 178.383C191.859 178.121 191.941 177.814 191.945 177.463C191.941 177.118 191.86 176.818 191.701 176.563C191.542 176.305 191.322 176.106 191.04 175.967C190.758 175.824 190.43 175.753 190.056 175.753C189.674 175.753 189.341 175.824 189.056 175.967C188.771 176.106 188.551 176.305 188.395 176.563C188.239 176.818 188.163 177.118 188.166 177.463C188.163 177.814 188.241 178.121 188.4 178.383C188.562 178.645 188.786 178.848 189.071 178.994C189.356 179.14 189.684 179.213 190.056 179.213ZM198.603 185.139C198.02 185.139 197.494 185.023 197.027 184.791C196.56 184.559 196.185 184.241 195.903 183.837C195.622 183.432 195.468 182.972 195.441 182.455H196.634C196.681 182.915 196.889 183.296 197.261 183.598C197.635 183.896 198.083 184.045 198.603 184.045C199.021 184.045 199.392 183.948 199.717 183.752C200.045 183.557 200.302 183.288 200.487 182.947C200.676 182.602 200.771 182.213 200.771 181.778C200.771 181.334 200.673 180.938 200.477 180.59C200.285 180.239 200.02 179.962 199.682 179.76C199.344 179.558 198.958 179.455 198.523 179.452C198.212 179.448 197.892 179.496 197.564 179.596C197.236 179.692 196.966 179.816 196.754 179.969L195.6 179.83L196.217 174.818H201.506V175.912H197.251L196.893 178.915H196.952C197.161 178.749 197.423 178.612 197.738 178.502C198.053 178.393 198.381 178.338 198.722 178.338C199.345 178.338 199.901 178.487 200.388 178.786C200.878 179.08 201.263 179.485 201.541 179.999C201.823 180.512 201.964 181.099 201.964 181.759C201.964 182.408 201.818 182.988 201.526 183.499C201.238 184.006 200.84 184.407 200.333 184.702C199.826 184.993 199.249 185.139 198.603 185.139ZM209.129 183.091V182.554C209.129 182.183 209.205 181.843 209.358 181.535C209.514 181.223 209.739 180.975 210.034 180.789C210.332 180.6 210.693 180.506 211.118 180.506C211.549 180.506 211.91 180.6 212.202 180.789C212.493 180.975 212.714 181.223 212.863 181.535C213.012 181.843 213.086 182.183 213.086 182.554V183.091C213.086 183.462 213.01 183.804 212.858 184.115C212.709 184.423 212.487 184.672 212.192 184.861C211.9 185.046 211.542 185.139 211.118 185.139C210.687 185.139 210.324 185.046 210.029 184.861C209.734 184.672 209.51 184.423 209.358 184.115C209.205 183.804 209.129 183.462 209.129 183.091ZM210.143 182.554V183.091C210.143 183.399 210.216 183.676 210.362 183.921C210.508 184.163 210.76 184.284 211.118 184.284C211.466 184.284 211.711 184.163 211.854 183.921C211.999 183.676 212.072 183.399 212.072 183.091V182.554C212.072 182.246 212.003 181.971 211.863 181.729C211.724 181.483 211.476 181.361 211.118 181.361C210.77 181.361 210.519 181.483 210.367 181.729C210.218 181.971 210.143 182.246 210.143 182.554ZM204.058 177.264V176.727C204.058 176.356 204.134 176.016 204.287 175.708C204.443 175.397 204.668 175.148 204.963 174.962C205.261 174.773 205.622 174.679 206.047 174.679C206.478 174.679 206.839 174.773 207.131 174.962C207.422 175.148 207.643 175.397 207.792 175.708C207.941 176.016 208.015 176.356 208.015 176.727V177.264C208.015 177.635 207.939 177.977 207.787 178.288C207.638 178.597 207.416 178.845 207.121 179.034C206.829 179.22 206.471 179.312 206.047 179.312C205.616 179.312 205.253 179.22 204.958 179.034C204.663 178.845 204.439 178.597 204.287 178.288C204.134 177.977 204.058 177.635 204.058 177.264ZM205.072 176.727V177.264C205.072 177.572 205.145 177.849 205.291 178.094C205.437 178.336 205.689 178.457 206.047 178.457C206.395 178.457 206.64 178.336 206.782 178.094C206.928 177.849 207.001 177.572 207.001 177.264V176.727C207.001 176.419 206.932 176.144 206.792 175.902C206.653 175.657 206.405 175.534 206.047 175.534C205.699 175.534 205.448 175.657 205.296 175.902C205.147 176.144 205.072 176.419 205.072 176.727ZM204.436 185L211.436 174.818H212.569L205.569 185H204.436Z" fill="#0C447C"/>
<path d="M168.072 197.21V196.273H174.617V197.21H171.873V205H170.816V197.21H168.072ZM176.112 205V198.455H177.118V205H176.112ZM176.623 197.364C176.427 197.364 176.258 197.297 176.116 197.163C175.977 197.03 175.907 196.869 175.907 196.682C175.907 196.494 175.977 196.334 176.116 196.2C176.258 196.067 176.427 196 176.623 196C176.819 196 176.987 196.067 177.126 196.2C177.268 196.334 177.339 196.494 177.339 196.682C177.339 196.869 177.268 197.03 177.126 197.163C176.987 197.297 176.819 197.364 176.623 197.364ZM178.96 205V198.455H179.931V199.477H180.016C180.153 199.128 180.373 198.857 180.677 198.663C180.981 198.467 181.346 198.369 181.772 198.369C182.204 198.369 182.563 198.467 182.85 198.663C183.14 198.857 183.366 199.128 183.528 199.477H183.596C183.763 199.139 184.015 198.871 184.35 198.672C184.685 198.47 185.087 198.369 185.556 198.369C186.141 198.369 186.62 198.553 186.992 198.919C187.364 199.283 187.55 199.849 187.55 200.619V205H186.545V200.619C186.545 200.136 186.413 199.791 186.148 199.584C185.884 199.376 185.573 199.273 185.215 199.273C184.755 199.273 184.398 199.412 184.146 199.69C183.893 199.966 183.766 200.315 183.766 200.739V205H182.744V200.517C182.744 200.145 182.623 199.845 182.381 199.618C182.14 199.388 181.829 199.273 181.448 199.273C181.187 199.273 180.942 199.342 180.715 199.482C180.491 199.621 180.309 199.814 180.17 200.061C180.033 200.305 179.965 200.588 179.965 200.909V205H178.96ZM192.134 205.136C191.503 205.136 190.959 204.997 190.501 204.719C190.047 204.438 189.696 204.045 189.449 203.543C189.205 203.037 189.082 202.449 189.082 201.778C189.082 201.108 189.205 200.517 189.449 200.006C189.696 199.491 190.04 199.091 190.48 198.804C190.923 198.514 191.44 198.369 192.031 198.369C192.372 198.369 192.709 198.426 193.041 198.54C193.374 198.653 193.676 198.838 193.949 199.094C194.222 199.347 194.439 199.682 194.601 200.099C194.763 200.517 194.844 201.031 194.844 201.642V202.068H189.798V201.199H193.821C193.821 200.83 193.747 200.5 193.599 200.21C193.455 199.92 193.247 199.692 192.977 199.524C192.71 199.357 192.395 199.273 192.031 199.273C191.631 199.273 191.284 199.372 190.991 199.571C190.702 199.767 190.479 200.023 190.322 200.338C190.166 200.653 190.088 200.991 190.088 201.352V201.932C190.088 202.426 190.173 202.845 190.344 203.189C190.517 203.53 190.757 203.79 191.064 203.969C191.371 204.145 191.727 204.233 192.134 204.233C192.398 204.233 192.636 204.196 192.849 204.122C193.065 204.045 193.251 203.932 193.408 203.781C193.564 203.628 193.685 203.437 193.77 203.21L194.741 203.483C194.639 203.812 194.467 204.102 194.226 204.352C193.984 204.599 193.686 204.793 193.331 204.932C192.976 205.068 192.577 205.136 192.134 205.136ZM204.385 199.92L203.482 200.176C203.425 200.026 203.341 199.879 203.23 199.737C203.122 199.592 202.974 199.473 202.787 199.379C202.599 199.286 202.359 199.239 202.067 199.239C201.666 199.239 201.332 199.331 201.065 199.516C200.801 199.697 200.669 199.929 200.669 200.21C200.669 200.46 200.76 200.658 200.942 200.803C201.124 200.947 201.408 201.068 201.794 201.165L202.766 201.403C203.351 201.545 203.787 201.763 204.074 202.055C204.361 202.345 204.504 202.719 204.504 203.176C204.504 203.551 204.396 203.886 204.18 204.182C203.967 204.477 203.669 204.71 203.286 204.881C202.902 205.051 202.456 205.136 201.947 205.136C201.28 205.136 200.727 204.991 200.29 204.702C199.852 204.412 199.575 203.989 199.459 203.432L200.413 203.193C200.504 203.545 200.676 203.81 200.929 203.986C201.185 204.162 201.518 204.25 201.93 204.25C202.399 204.25 202.771 204.151 203.047 203.952C203.325 203.75 203.464 203.509 203.464 203.227C203.464 203 203.385 202.81 203.226 202.656C203.067 202.5 202.822 202.384 202.493 202.307L201.402 202.051C200.803 201.909 200.362 201.689 200.081 201.391C199.803 201.089 199.663 200.713 199.663 200.261C199.663 199.892 199.767 199.565 199.974 199.281C200.185 198.997 200.47 198.774 200.831 198.612C201.195 198.45 201.607 198.369 202.067 198.369C202.714 198.369 203.223 198.511 203.592 198.795C203.964 199.08 204.229 199.455 204.385 199.92ZM207.944 205.153C207.529 205.153 207.153 205.075 206.815 204.919C206.477 204.76 206.208 204.531 206.01 204.233C205.811 203.932 205.711 203.568 205.711 203.142C205.711 202.767 205.785 202.463 205.933 202.23C206.081 201.994 206.278 201.81 206.525 201.676C206.772 201.543 207.045 201.443 207.343 201.378C207.645 201.31 207.947 201.256 208.251 201.216C208.649 201.165 208.971 201.126 209.218 201.101C209.468 201.072 209.65 201.026 209.764 200.96C209.88 200.895 209.939 200.781 209.939 200.619V200.585C209.939 200.165 209.824 199.838 209.593 199.605C209.366 199.372 209.021 199.256 208.558 199.256C208.078 199.256 207.701 199.361 207.429 199.571C207.156 199.781 206.964 200.006 206.853 200.244L205.899 199.903C206.069 199.506 206.297 199.196 206.581 198.974C206.868 198.75 207.18 198.594 207.518 198.506C207.859 198.415 208.194 198.369 208.524 198.369C208.734 198.369 208.975 198.395 209.248 198.446C209.524 198.494 209.789 198.595 210.045 198.749C210.304 198.902 210.518 199.134 210.689 199.443C210.859 199.753 210.944 200.168 210.944 200.688V205H209.939V204.114H209.887C209.819 204.256 209.706 204.408 209.547 204.57C209.387 204.732 209.176 204.869 208.912 204.983C208.647 205.097 208.325 205.153 207.944 205.153ZM208.098 204.25C208.495 204.25 208.831 204.172 209.103 204.016C209.379 203.859 209.586 203.658 209.725 203.411C209.868 203.163 209.939 202.903 209.939 202.631V201.71C209.896 201.761 209.802 201.808 209.657 201.851C209.515 201.891 209.35 201.926 209.163 201.957C208.978 201.986 208.798 202.011 208.622 202.034C208.449 202.054 208.308 202.071 208.2 202.085C207.939 202.119 207.694 202.175 207.467 202.251C207.243 202.325 207.061 202.437 206.922 202.588C206.785 202.736 206.717 202.937 206.717 203.193C206.717 203.543 206.846 203.807 207.105 203.986C207.366 204.162 207.697 204.25 208.098 204.25ZM217.898 198.455L215.477 205H214.455L212.034 198.455H213.125L214.932 203.67H215L216.807 198.455H217.898ZM221.735 205.136C221.104 205.136 220.56 204.997 220.103 204.719C219.648 204.438 219.298 204.045 219.05 203.543C218.806 203.037 218.684 202.449 218.684 201.778C218.684 201.108 218.806 200.517 219.05 200.006C219.298 199.491 219.641 199.091 220.082 198.804C220.525 198.514 221.042 198.369 221.633 198.369C221.974 198.369 222.31 198.426 222.643 198.54C222.975 198.653 223.278 198.838 223.55 199.094C223.823 199.347 224.04 199.682 224.202 200.099C224.364 200.517 224.445 201.031 224.445 201.642V202.068H219.4V201.199H223.423C223.423 200.83 223.349 200.5 223.201 200.21C223.056 199.92 222.849 199.692 222.579 199.524C222.312 199.357 221.996 199.273 221.633 199.273C221.232 199.273 220.886 199.372 220.593 199.571C220.303 199.767 220.08 200.023 219.924 200.338C219.768 200.653 219.69 200.991 219.69 201.352V201.932C219.69 202.426 219.775 202.845 219.945 203.189C220.119 203.53 220.359 203.79 220.665 203.969C220.972 204.145 221.329 204.233 221.735 204.233C221.999 204.233 222.238 204.196 222.451 204.122C222.667 204.045 222.853 203.932 223.009 203.781C223.165 203.628 223.286 203.437 223.371 203.21L224.343 203.483C224.241 203.812 224.069 204.102 223.827 204.352C223.586 204.599 223.288 204.793 222.933 204.932C222.577 205.068 222.178 205.136 221.735 205.136ZM228.447 205.136C227.901 205.136 227.42 204.999 227.002 204.723C226.585 204.445 226.258 204.053 226.022 203.547C225.786 203.038 225.668 202.438 225.668 201.744C225.668 201.057 225.786 200.46 226.022 199.955C226.258 199.449 226.586 199.058 227.006 198.783C227.427 198.507 227.913 198.369 228.464 198.369C228.89 198.369 229.227 198.44 229.474 198.582C229.724 198.722 229.914 198.881 230.045 199.06C230.178 199.236 230.282 199.381 230.356 199.494H230.441V196.273H231.447V205H230.475V203.994H230.356C230.282 204.114 230.177 204.264 230.04 204.446C229.904 204.625 229.71 204.786 229.457 204.928C229.204 205.067 228.867 205.136 228.447 205.136ZM228.583 204.233C228.987 204.233 229.327 204.128 229.606 203.918C229.884 203.705 230.096 203.411 230.241 203.036C230.386 202.658 230.458 202.222 230.458 201.727C230.458 201.239 230.387 200.811 230.245 200.445C230.103 200.075 229.893 199.788 229.614 199.584C229.336 199.376 228.992 199.273 228.583 199.273C228.157 199.273 227.802 199.382 227.518 199.601C227.237 199.817 227.025 200.111 226.883 200.483C226.744 200.852 226.674 201.267 226.674 201.727C226.674 202.193 226.745 202.616 226.887 202.997C227.032 203.375 227.245 203.676 227.526 203.901C227.81 204.122 228.163 204.233 228.583 204.233Z" fill="#5F5E5A"/>
<path d="M590 155H390C384.477 155 380 159.477 380 165V195C380 200.523 384.477 205 390 205H590C595.523 205 600 200.523 600 195V165C600 159.477 595.523 155 590 155Z" fill="#FAEEDA" stroke="#854F0B" stroke-width="0.5"/>
<path d="M469.502 175V164.818H473.061C473.77 164.818 474.355 164.941 474.816 165.186C475.277 165.428 475.62 165.754 475.845 166.165C476.071 166.573 476.183 167.026 476.183 167.523C476.183 167.96 476.105 168.321 475.95 168.607C475.797 168.892 475.595 169.117 475.343 169.283C475.095 169.448 474.824 169.571 474.533 169.651V169.75C474.844 169.77 475.158 169.879 475.472 170.078C475.787 170.277 476.051 170.562 476.263 170.933C476.475 171.304 476.581 171.759 476.581 172.295C476.581 172.806 476.465 173.265 476.233 173.673C476.001 174.08 475.635 174.403 475.134 174.642C474.634 174.881 473.983 175 473.18 175H469.502ZM470.734 173.906H473.18C473.986 173.906 474.558 173.75 474.896 173.439C475.237 173.124 475.408 172.743 475.408 172.295C475.408 171.951 475.32 171.633 475.144 171.341C474.969 171.046 474.718 170.811 474.394 170.635C474.069 170.456 473.684 170.366 473.24 170.366H470.734V173.906ZM470.734 169.293H473.021C473.393 169.293 473.727 169.22 474.026 169.074C474.327 168.928 474.566 168.723 474.742 168.457C474.921 168.192 475.01 167.881 475.01 167.523C475.01 167.075 474.854 166.696 474.543 166.384C474.231 166.069 473.737 165.912 473.061 165.912H470.734V169.293ZM481.65 175.159C480.914 175.159 480.279 174.997 479.745 174.672C479.215 174.344 478.806 173.886 478.517 173.3C478.232 172.71 478.09 172.024 478.09 171.241C478.09 170.459 478.232 169.77 478.517 169.173C478.806 168.573 479.207 168.106 479.721 167.771C480.238 167.433 480.841 167.264 481.53 167.264C481.928 167.264 482.321 167.33 482.709 167.463C483.096 167.596 483.449 167.811 483.767 168.109C484.086 168.404 484.339 168.795 484.528 169.283C484.717 169.77 484.812 170.37 484.812 171.082V171.58H478.925V170.565H483.618C483.618 170.134 483.532 169.75 483.36 169.412C483.191 169.074 482.949 168.807 482.634 168.612C482.322 168.416 481.955 168.318 481.53 168.318C481.063 168.318 480.659 168.434 480.317 168.666C479.979 168.895 479.719 169.193 479.537 169.561C479.354 169.929 479.263 170.323 479.263 170.744V171.42C479.263 171.997 479.363 172.486 479.562 172.887C479.764 173.285 480.044 173.588 480.402 173.797C480.76 174.002 481.176 174.105 481.65 174.105C481.958 174.105 482.236 174.062 482.485 173.976C482.737 173.886 482.954 173.754 483.136 173.578C483.318 173.399 483.459 173.177 483.559 172.912L484.692 173.23C484.573 173.615 484.372 173.953 484.091 174.244C483.809 174.533 483.461 174.758 483.047 174.92C482.632 175.08 482.167 175.159 481.65 175.159ZM489.997 167.364V168.358H485.88V167.364H489.997ZM487.113 175V166.31C487.113 165.872 487.216 165.508 487.422 165.216C487.627 164.924 487.894 164.705 488.222 164.56C488.55 164.414 488.897 164.341 489.261 164.341C489.549 164.341 489.785 164.364 489.967 164.411C490.149 164.457 490.285 164.5 490.375 164.54L490.037 165.554C489.977 165.534 489.894 165.509 489.788 165.479C489.685 165.45 489.549 165.435 489.38 165.435C488.993 165.435 488.713 165.532 488.54 165.728C488.371 165.924 488.287 166.21 488.287 166.588V175H487.113ZM494.429 175.159C493.74 175.159 493.135 174.995 492.614 174.667C492.097 174.339 491.693 173.88 491.401 173.29C491.113 172.7 490.969 172.01 490.969 171.222C490.969 170.426 491.113 169.732 491.401 169.138C491.693 168.545 492.097 168.085 492.614 167.756C493.135 167.428 493.74 167.264 494.429 167.264C495.118 167.264 495.722 167.428 496.239 167.756C496.759 168.085 497.163 168.545 497.452 169.138C497.743 169.732 497.889 170.426 497.889 171.222C497.889 172.01 497.743 172.7 497.452 173.29C497.163 173.88 496.759 174.339 496.239 174.667C495.722 174.995 495.118 175.159 494.429 175.159ZM494.429 174.105C494.953 174.105 495.384 173.971 495.722 173.702C496.06 173.434 496.31 173.081 496.472 172.643C496.635 172.206 496.716 171.732 496.716 171.222C496.716 170.711 496.635 170.236 496.472 169.795C496.31 169.354 496.06 168.998 495.722 168.726C495.384 168.454 494.953 168.318 494.429 168.318C493.905 168.318 493.475 168.454 493.136 168.726C492.798 168.998 492.548 169.354 492.386 169.795C492.223 170.236 492.142 170.711 492.142 171.222C492.142 171.732 492.223 172.206 492.386 172.643C492.548 173.081 492.798 173.434 493.136 173.702C493.475 173.971 493.905 174.105 494.429 174.105ZM499.68 175V167.364H500.814V168.517H500.893C501.033 168.139 501.284 167.833 501.649 167.597C502.014 167.362 502.425 167.244 502.882 167.244C502.968 167.244 503.076 167.246 503.205 167.249C503.334 167.253 503.432 167.258 503.498 167.264V168.457C503.459 168.447 503.368 168.433 503.225 168.413C503.086 168.389 502.938 168.378 502.783 168.378C502.411 168.378 502.08 168.456 501.788 168.612C501.5 168.764 501.271 168.976 501.102 169.248C500.936 169.516 500.854 169.823 500.854 170.168V175H499.68ZM507.859 175.159C507.123 175.159 506.488 174.997 505.954 174.672C505.424 174.344 505.015 173.886 504.726 173.3C504.441 172.71 504.299 172.024 504.299 171.241C504.299 170.459 504.441 169.77 504.726 169.173C505.015 168.573 505.416 168.106 505.93 167.771C506.447 167.433 507.05 167.264 507.739 167.264C508.137 167.264 508.53 167.33 508.918 167.463C509.305 167.596 509.658 167.811 509.976 168.109C510.295 168.404 510.548 168.795 510.737 169.283C510.926 169.77 511.021 170.37 511.021 171.082V171.58H505.134V170.565H509.827C509.827 170.134 509.741 169.75 509.569 169.412C509.4 169.074 509.158 168.807 508.843 168.612C508.531 168.416 508.164 168.318 507.739 168.318C507.272 168.318 506.868 168.434 506.526 168.666C506.188 168.895 505.928 169.193 505.746 169.561C505.563 169.929 505.472 170.323 505.472 170.744V171.42C505.472 171.997 505.572 172.486 505.771 172.887C505.973 173.285 506.253 173.588 506.611 173.797C506.969 174.002 507.385 174.105 507.859 174.105C508.167 174.105 508.445 174.062 508.694 173.976C508.946 173.886 509.163 173.754 509.345 173.578C509.527 173.399 509.668 173.177 509.768 172.912L510.901 173.23C510.782 173.615 510.581 173.953 510.3 174.244C510.018 174.533 509.67 174.758 509.256 174.92C508.841 175.08 508.376 175.159 507.859 175.159Z" fill="#633806"/>
<path d="M468.225 184.273V193H467.169V185.381H467.118L464.987 186.795V185.722L467.169 184.273H468.225ZM470.531 191.21V190.341L474.366 184.273H474.997V185.619H474.571L471.673 190.205V190.273H476.838V191.21H470.531ZM474.639 193V190.946V190.541V184.273H475.645V193H474.639ZM481.009 191.466V185.841H481.963V191.466H481.009ZM478.673 189.131V188.176H484.298V189.131H478.673ZM492.208 193.136C491.663 193.136 491.181 192.999 490.764 192.723C490.346 192.445 490.02 192.053 489.784 191.547C489.548 191.038 489.43 190.438 489.43 189.744C489.43 189.057 489.548 188.46 489.784 187.955C490.02 187.449 490.348 187.058 490.768 186.783C491.189 186.507 491.674 186.369 492.225 186.369C492.652 186.369 492.988 186.44 493.235 186.582C493.485 186.722 493.676 186.881 493.806 187.06C493.94 187.236 494.044 187.381 494.118 187.494H494.203V184.273H495.208V193H494.237V191.994H494.118C494.044 192.114 493.939 192.264 493.802 192.446C493.666 192.625 493.471 192.786 493.218 192.928C492.966 193.067 492.629 193.136 492.208 193.136ZM492.345 192.233C492.748 192.233 493.089 192.128 493.368 191.918C493.646 191.705 493.858 191.411 494.002 191.036C494.147 190.658 494.22 190.222 494.22 189.727C494.22 189.239 494.149 188.811 494.007 188.445C493.865 188.075 493.654 187.788 493.376 187.584C493.098 187.376 492.754 187.273 492.345 187.273C491.919 187.273 491.564 187.382 491.279 187.601C490.998 187.817 490.787 188.111 490.645 188.483C490.505 188.852 490.436 189.267 490.436 189.727C490.436 190.193 490.507 190.616 490.649 190.997C490.794 191.375 491.007 191.676 491.288 191.901C491.572 192.122 491.924 192.233 492.345 192.233ZM499.116 193.153C498.701 193.153 498.325 193.075 497.987 192.919C497.649 192.76 497.38 192.531 497.181 192.233C496.983 191.932 496.883 191.568 496.883 191.142C496.883 190.767 496.957 190.463 497.105 190.23C497.252 189.994 497.45 189.81 497.697 189.676C497.944 189.543 498.217 189.443 498.515 189.378C498.816 189.31 499.119 189.256 499.423 189.216C499.821 189.165 500.143 189.126 500.39 189.101C500.64 189.072 500.822 189.026 500.936 188.96C501.052 188.895 501.11 188.781 501.11 188.619V188.585C501.11 188.165 500.995 187.838 500.765 187.605C500.538 187.372 500.193 187.256 499.73 187.256C499.25 187.256 498.873 187.361 498.6 187.571C498.328 187.781 498.136 188.006 498.025 188.244L497.071 187.903C497.241 187.506 497.468 187.196 497.752 186.974C498.039 186.75 498.352 186.594 498.69 186.506C499.031 186.415 499.366 186.369 499.696 186.369C499.906 186.369 500.147 186.395 500.42 186.446C500.696 186.494 500.961 186.595 501.217 186.749C501.475 186.902 501.69 187.134 501.86 187.443C502.031 187.753 502.116 188.168 502.116 188.688V193H501.11V192.114H501.059C500.991 192.256 500.877 192.408 500.718 192.57C500.559 192.732 500.348 192.869 500.083 192.983C499.819 193.097 499.497 193.153 499.116 193.153ZM499.27 192.25C499.667 192.25 500.002 192.172 500.275 192.016C500.551 191.859 500.758 191.658 500.897 191.411C501.039 191.163 501.11 190.903 501.11 190.631V189.71C501.068 189.761 500.974 189.808 500.829 189.851C500.687 189.891 500.522 189.926 500.335 189.957C500.15 189.986 499.97 190.011 499.794 190.034C499.62 190.054 499.48 190.071 499.372 190.085C499.11 190.119 498.866 190.175 498.639 190.251C498.414 190.325 498.233 190.437 498.093 190.588C497.957 190.736 497.889 190.937 497.889 191.193C497.889 191.543 498.018 191.807 498.277 191.986C498.538 192.162 498.869 192.25 499.27 192.25ZM504.365 195.455C504.195 195.455 504.043 195.44 503.909 195.412C503.776 195.386 503.683 195.361 503.632 195.335L503.888 194.449C504.132 194.511 504.348 194.534 504.536 194.517C504.723 194.5 504.889 194.416 505.034 194.266C505.182 194.118 505.317 193.878 505.439 193.545L505.626 193.034L503.206 186.455H504.297L506.104 191.67H506.172L507.979 186.455H509.07L506.291 193.955C506.166 194.293 506.011 194.572 505.827 194.794C505.642 195.018 505.428 195.185 505.183 195.293C504.942 195.401 504.669 195.455 504.365 195.455ZM515.033 187.92L514.13 188.176C514.073 188.026 513.989 187.879 513.879 187.737C513.771 187.592 513.623 187.473 513.435 187.379C513.248 187.286 513.008 187.239 512.715 187.239C512.315 187.239 511.981 187.331 511.714 187.516C511.45 187.697 511.317 187.929 511.317 188.21C511.317 188.46 511.408 188.658 511.59 188.803C511.772 188.947 512.056 189.068 512.442 189.165L513.414 189.403C513.999 189.545 514.435 189.763 514.722 190.055C515.009 190.345 515.153 190.719 515.153 191.176C515.153 191.551 515.045 191.886 514.829 192.182C514.616 192.477 514.317 192.71 513.934 192.881C513.55 193.051 513.104 193.136 512.596 193.136C511.928 193.136 511.376 192.991 510.938 192.702C510.501 192.412 510.224 191.989 510.107 191.432L511.062 191.193C511.153 191.545 511.325 191.81 511.577 191.986C511.833 192.162 512.167 192.25 512.579 192.25C513.048 192.25 513.42 192.151 513.695 191.952C513.974 191.75 514.113 191.509 514.113 191.227C514.113 191 514.033 190.81 513.874 190.656C513.715 190.5 513.471 190.384 513.141 190.307L512.05 190.051C511.451 189.909 511.011 189.689 510.729 189.391C510.451 189.089 510.312 188.713 510.312 188.261C510.312 187.892 510.415 187.565 510.623 187.281C510.833 186.997 511.119 186.774 511.479 186.612C511.843 186.45 512.255 186.369 512.715 186.369C513.363 186.369 513.871 186.511 514.241 186.795C514.613 187.08 514.877 187.455 515.033 187.92Z" fill="#854F0B"/>
<path d="M461.231 225H386.769C383.031 225 380 229.477 380 235V265C380 270.523 383.031 275 386.769 275H461.231C464.969 275 468 270.523 468 265V235C468 229.477 464.969 225 461.231 225Z" fill="#E6F1FB" stroke="#185FA5" stroke-width="0.5"/>
<path d="M411.217 245H409.924L413.663 234.818H414.936L418.674 245H417.382L414.339 236.429H414.26L411.217 245ZM411.694 241.023H416.904V242.116H411.694V241.023ZM423.502 237.364V238.358H419.385V237.364H423.502ZM420.618 245V236.31C420.618 235.872 420.721 235.508 420.926 235.216C421.132 234.924 421.399 234.705 421.727 234.56C422.055 234.414 422.401 234.341 422.766 234.341C423.054 234.341 423.29 234.364 423.472 234.411C423.654 234.457 423.79 234.5 423.88 234.54L423.542 235.554C423.482 235.534 423.399 235.509 423.293 235.479C423.19 235.45 423.054 235.435 422.885 235.435C422.498 235.435 422.217 235.532 422.045 235.728C421.876 235.924 421.792 236.21 421.792 236.588V245H420.618ZM428.467 237.364V238.358H424.51V237.364H428.467ZM425.663 235.534H426.836V242.812C426.836 243.144 426.885 243.393 426.981 243.558C427.08 243.721 427.206 243.83 427.358 243.886C427.514 243.939 427.678 243.966 427.851 243.966C427.98 243.966 428.086 243.959 428.169 243.946C428.252 243.929 428.318 243.916 428.368 243.906L428.606 244.96C428.527 244.99 428.416 245.02 428.273 245.05C428.131 245.083 427.95 245.099 427.731 245.099C427.4 245.099 427.075 245.028 426.757 244.886C426.442 244.743 426.18 244.526 425.971 244.234C425.766 243.943 425.663 243.575 425.663 243.131V235.534ZM433.352 245.159C432.616 245.159 431.981 244.997 431.448 244.672C430.917 244.344 430.508 243.886 430.22 243.3C429.935 242.71 429.792 242.024 429.792 241.241C429.792 240.459 429.935 239.77 430.22 239.173C430.508 238.573 430.909 238.106 431.423 237.771C431.94 237.433 432.543 237.264 433.232 237.264C433.63 237.264 434.023 237.33 434.411 237.463C434.798 237.596 435.151 237.811 435.47 238.109C435.788 238.404 436.041 238.795 436.23 239.283C436.419 239.77 436.514 240.37 436.514 241.082V241.58H430.627V240.565H435.32C435.32 240.134 435.234 239.75 435.062 239.412C434.893 239.074 434.651 238.807 434.336 238.612C434.025 238.416 433.657 238.318 433.232 238.318C432.765 238.318 432.361 238.434 432.019 238.666C431.681 238.895 431.421 239.193 431.239 239.561C431.057 239.929 430.965 240.323 430.965 240.744V241.42C430.965 241.997 431.065 242.486 431.264 242.887C431.466 243.285 431.746 243.588 432.104 243.797C432.462 244.002 432.878 244.105 433.352 244.105C433.66 244.105 433.938 244.062 434.187 243.976C434.439 243.886 434.656 243.754 434.838 243.578C435.021 243.399 435.161 243.177 435.261 242.912L436.394 243.23C436.275 243.615 436.075 243.953 435.793 244.244C435.511 244.533 435.163 244.758 434.749 244.92C434.334 245.08 433.869 245.159 433.352 245.159ZM438.298 245V237.364H439.432V238.517H439.512C439.651 238.139 439.903 237.833 440.267 237.597C440.632 237.362 441.043 237.244 441.5 237.244C441.586 237.244 441.694 237.246 441.823 237.249C441.953 237.253 442.05 237.258 442.117 237.264V238.457C442.077 238.447 441.986 238.433 441.843 238.413C441.704 238.389 441.557 238.378 441.401 238.378C441.03 238.378 440.698 238.456 440.406 238.612C440.118 238.764 439.889 238.976 439.72 239.248C439.555 239.516 439.472 239.823 439.472 240.168V245H438.298Z" fill="#0C447C"/>
<path d="M395.169 260V259.233L398.05 256.08C398.388 255.71 398.666 255.389 398.885 255.116C399.104 254.841 399.266 254.582 399.371 254.341C399.479 254.097 399.533 253.841 399.533 253.574C399.533 253.267 399.459 253.001 399.311 252.777C399.166 252.553 398.967 252.379 398.714 252.257C398.462 252.135 398.178 252.074 397.862 252.074C397.527 252.074 397.234 252.143 396.984 252.283C396.737 252.419 396.545 252.611 396.409 252.858C396.276 253.105 396.209 253.395 396.209 253.727H395.203C395.203 253.216 395.321 252.767 395.557 252.381C395.793 251.994 396.114 251.693 396.52 251.477C396.929 251.261 397.388 251.153 397.896 251.153C398.408 251.153 398.861 251.261 399.256 251.477C399.651 251.693 399.96 251.984 400.185 252.351C400.409 252.717 400.521 253.125 400.521 253.574C400.521 253.895 400.463 254.209 400.347 254.516C400.233 254.82 400.034 255.159 399.75 255.534C399.469 255.906 399.078 256.361 398.578 256.898L396.618 258.994V259.062H400.675V260H395.169ZM408.673 253.455V254.307H405.281V253.455H408.673ZM406.27 251.886H407.276V258.125C407.276 258.409 407.317 258.622 407.399 258.764C407.484 258.903 407.592 258.997 407.723 259.045C407.857 259.091 407.997 259.114 408.145 259.114C408.256 259.114 408.347 259.108 408.418 259.097C408.489 259.082 408.545 259.071 408.588 259.062L408.793 259.966C408.724 259.991 408.629 260.017 408.507 260.043C408.385 260.071 408.23 260.085 408.043 260.085C407.759 260.085 407.48 260.024 407.207 259.902C406.938 259.78 406.713 259.594 406.534 259.344C406.358 259.094 406.27 258.778 406.27 258.398V251.886ZM412.775 260.136C412.184 260.136 411.665 259.996 411.219 259.714C410.776 259.433 410.43 259.04 410.18 258.534C409.933 258.028 409.809 257.437 409.809 256.761C409.809 256.08 409.933 255.484 410.18 254.976C410.43 254.467 410.776 254.072 411.219 253.791C411.665 253.51 412.184 253.369 412.775 253.369C413.366 253.369 413.883 253.51 414.326 253.791C414.772 254.072 415.119 254.467 415.366 254.976C415.616 255.484 415.741 256.08 415.741 256.761C415.741 257.437 415.616 258.028 415.366 258.534C415.119 259.04 414.772 259.433 414.326 259.714C413.883 259.996 413.366 260.136 412.775 260.136ZM412.775 259.233C413.224 259.233 413.593 259.118 413.883 258.888C414.173 258.658 414.387 258.355 414.526 257.98C414.665 257.605 414.735 257.199 414.735 256.761C414.735 256.324 414.665 255.916 414.526 255.538C414.387 255.161 414.173 254.855 413.883 254.622C413.593 254.389 413.224 254.273 412.775 254.273C412.326 254.273 411.957 254.389 411.667 254.622C411.377 254.855 411.163 255.161 411.023 255.538C410.884 255.916 410.815 256.324 410.815 256.761C410.815 257.199 410.884 257.605 411.023 257.98C411.163 258.355 411.377 258.658 411.667 258.888C411.957 259.118 412.326 259.233 412.775 259.233ZM420.429 258.21V257.341L424.265 251.273H424.895V252.619H424.469L421.571 257.205V257.273H426.736V258.21H420.429ZM424.537 260V257.946V257.541V251.273H425.543V260H424.537ZM434.197 260.136C433.651 260.136 433.17 259.999 432.752 259.723C432.335 259.445 432.008 259.053 431.772 258.547C431.536 258.038 431.418 257.438 431.418 256.744C431.418 256.057 431.536 255.46 431.772 254.955C432.008 254.449 432.336 254.058 432.756 253.783C433.177 253.507 433.663 253.369 434.214 253.369C434.64 253.369 434.977 253.44 435.224 253.582C435.474 253.722 435.664 253.881 435.795 254.06C435.928 254.236 436.032 254.381 436.106 254.494H436.191V251.273H437.197V260H436.225V258.994H436.106C436.032 259.114 435.927 259.264 435.79 259.446C435.654 259.625 435.46 259.786 435.207 259.928C434.954 260.067 434.617 260.136 434.197 260.136ZM434.333 259.233C434.737 259.233 435.077 259.128 435.356 258.918C435.634 258.705 435.846 258.411 435.991 258.036C436.136 257.658 436.208 257.222 436.208 256.727C436.208 256.239 436.137 255.811 435.995 255.445C435.853 255.075 435.643 254.788 435.364 254.584C435.086 254.376 434.742 254.273 434.333 254.273C433.907 254.273 433.552 254.382 433.268 254.601C432.987 254.817 432.775 255.111 432.633 255.483C432.494 255.852 432.424 256.267 432.424 256.727C432.424 257.193 432.495 257.616 432.637 257.997C432.782 258.375 432.995 258.676 433.276 258.901C433.56 259.122 433.913 259.233 434.333 259.233ZM441.104 260.153C440.69 260.153 440.313 260.075 439.975 259.919C439.637 259.76 439.369 259.531 439.17 259.233C438.971 258.932 438.871 258.568 438.871 258.142C438.871 257.767 438.945 257.463 439.093 257.23C439.241 256.994 439.438 256.81 439.685 256.676C439.933 256.543 440.205 256.443 440.504 256.378C440.805 256.31 441.107 256.256 441.411 256.216C441.809 256.165 442.131 256.126 442.379 256.101C442.629 256.072 442.81 256.026 442.924 255.96C443.04 255.895 443.099 255.781 443.099 255.619V255.585C443.099 255.165 442.984 254.838 442.754 254.605C442.526 254.372 442.181 254.256 441.718 254.256C441.238 254.256 440.862 254.361 440.589 254.571C440.316 254.781 440.124 255.006 440.013 255.244L439.059 254.903C439.229 254.506 439.457 254.196 439.741 253.974C440.028 253.75 440.34 253.594 440.678 253.506C441.019 253.415 441.354 253.369 441.684 253.369C441.894 253.369 442.136 253.395 442.408 253.446C442.684 253.494 442.95 253.595 443.205 253.749C443.464 253.902 443.678 254.134 443.849 254.443C444.019 254.753 444.104 255.168 444.104 255.688V260H443.099V259.114H443.048C442.979 259.256 442.866 259.408 442.707 259.57C442.548 259.732 442.336 259.869 442.072 259.983C441.808 260.097 441.485 260.153 441.104 260.153ZM441.258 259.25C441.656 259.25 441.991 259.172 442.263 259.016C442.539 258.859 442.746 258.658 442.886 258.411C443.028 258.163 443.099 257.903 443.099 257.631V256.71C443.056 256.761 442.962 256.808 442.817 256.851C442.675 256.891 442.511 256.926 442.323 256.957C442.138 256.986 441.958 257.011 441.782 257.034C441.609 257.054 441.468 257.071 441.36 257.085C441.099 257.119 440.854 257.175 440.627 257.251C440.403 257.325 440.221 257.437 440.082 257.588C439.945 257.736 439.877 257.937 439.877 258.193C439.877 258.543 440.006 258.807 440.265 258.986C440.526 259.162 440.857 259.25 441.258 259.25ZM446.353 262.455C446.183 262.455 446.031 262.44 445.897 262.412C445.764 262.386 445.672 262.361 445.62 262.335L445.876 261.449C446.12 261.511 446.336 261.534 446.524 261.517C446.711 261.5 446.877 261.416 447.022 261.266C447.17 261.118 447.305 260.878 447.427 260.545L447.615 260.034L445.194 253.455H446.285L448.092 258.67H448.16L449.967 253.455H451.058L448.279 260.955C448.154 261.293 448 261.572 447.815 261.794C447.63 262.018 447.416 262.185 447.172 262.293C446.93 262.401 446.657 262.455 446.353 262.455ZM457.022 254.92L456.118 255.176C456.061 255.026 455.978 254.879 455.867 254.737C455.759 254.592 455.611 254.473 455.424 254.379C455.236 254.286 454.996 254.239 454.703 254.239C454.303 254.239 453.969 254.331 453.702 254.516C453.438 254.697 453.306 254.929 453.306 255.21C453.306 255.46 453.397 255.658 453.578 255.803C453.76 255.947 454.044 256.068 454.431 256.165L455.402 256.403C455.988 256.545 456.424 256.763 456.711 257.055C456.998 257.345 457.141 257.719 457.141 258.176C457.141 258.551 457.033 258.886 456.817 259.182C456.604 259.477 456.306 259.71 455.922 259.881C455.539 260.051 455.093 260.136 454.584 260.136C453.917 260.136 453.364 259.991 452.926 259.702C452.489 259.412 452.212 258.989 452.096 258.432L453.05 258.193C453.141 258.545 453.313 258.81 453.566 258.986C453.821 259.162 454.155 259.25 454.567 259.25C455.036 259.25 455.408 259.151 455.684 258.952C455.962 258.75 456.101 258.509 456.101 258.227C456.101 258 456.022 257.81 455.863 257.656C455.703 257.5 455.459 257.384 455.13 257.307L454.039 257.051C453.439 256.909 452.999 256.689 452.718 256.391C452.439 256.089 452.3 255.713 452.3 255.261C452.3 254.892 452.404 254.565 452.611 254.281C452.821 253.997 453.107 253.774 453.468 253.612C453.831 253.45 454.243 253.369 454.703 253.369C455.351 253.369 455.86 253.511 456.229 253.795C456.601 254.08 456.865 254.455 457.022 254.92Z" fill="#185FA5"/>
</svg>
