<svg width="170" height="46" viewBox="0 0 170 46" fill="none" xmlns="http://www.w3.org/2000/svg">
<path d="M52.5558 33.3711H40.6465V45.2804H52.5558V33.3711Z" fill="#B9BCBD"/>
<path d="M44.8747 22.7936C44.8747 10.5989 34.9907 0.714844 22.796 0.714844C10.6013 0.714844 0.717285 10.5989 0.717285 22.7936C0.717285 34.9882 10.6013 44.8723 22.796 44.8723H33.6253V33.8329H22.796C16.6998 33.8329 11.7566 28.8898 11.7566 22.7936C11.7566 16.6974 16.6998 11.7542 22.796 11.7542C28.8922 11.7542 33.8354 16.6974 33.8354 22.7936H44.8747Z" fill="#0CB4D8"/>
<path d="M53.2748 45.9994H39.9316V32.6562H53.2748V45.9994ZM41.3632 44.5632H51.8386V34.0878H41.3632V44.5632Z" fill="white"/>
<path d="M34.3419 45.5913H22.7956C10.2265 45.5913 0 35.3648 0 22.7956C0 10.2265 10.2265 0 22.7956 0C35.3648 0 45.5913 10.2265 45.5913 22.7956V23.5126H33.1181V22.7956C33.1181 17.1036 28.4877 12.4732 22.7956 12.4732C17.1036 12.4732 12.4732 17.1036 12.4732 22.7956C12.4732 28.4877 17.1036 33.1181 22.7956 33.1181H34.3419V45.5913ZM22.7956 1.43158C11.0165 1.43158 1.43386 11.0142 1.43386 22.7934C1.43386 34.5725 11.0165 44.1552 22.7956 44.1552H32.908V34.5497H22.7956C16.3136 34.5497 11.0394 29.2754 11.0394 22.7934C11.0394 16.3113 16.3136 11.0371 22.7956 11.0371C29.2777 11.0371 34.1592 15.9277 34.5314 22.0764H44.146C43.767 10.6284 34.335 1.43158 22.7956 1.43158Z" fill="white"/>
<path d="M61.0537 33.9219H63.5812C65.8713 33.9219 67.4513 35.4927 67.4513 37.5636C67.4513 39.6345 65.869 41.2053 63.5812 41.2053H61.0537V33.9242V33.9219ZM63.5812 40.4427C65.4238 40.4427 66.5974 39.1938 66.5974 37.5613C66.5974 35.9288 65.4215 34.6799 63.5812 34.6799H61.8757V40.4427H63.5812Z" fill="white"/>
<path d="M69.2144 33.9219H70.0363V41.2031H69.2144V33.9219Z" fill="white"/>
<path d="M71.7962 37.5619C71.7962 35.5641 73.2621 33.7969 75.4471 33.7969C76.6755 33.7969 77.4335 34.1508 78.1618 34.765L77.6321 35.3906C77.0705 34.902 76.4449 34.5595 75.4151 34.5595C73.8032 34.5595 72.6479 35.9225 72.6479 37.5665C72.6479 39.304 73.7621 40.594 75.5293 40.594C76.3604 40.594 77.1321 40.2721 77.6298 39.8657V38.0551H75.4128V37.3176H78.4198V40.2196C77.744 40.8223 76.7234 41.3315 75.4973 41.3315C73.2095 41.3315 71.7939 39.667 71.7939 37.5665L71.7962 37.5619Z" fill="white"/>
<path d="M80.2988 33.9219H81.1208V41.2031H80.2988V33.9219Z" fill="white"/>
<path d="M85.1279 34.6799H82.6826V33.9219H88.4044V34.6799H85.959V41.2031H85.1279V34.6799Z" fill="white"/>
<path d="M91.6533 33.8672H92.4227L95.7402 41.2009H94.8566L94.0027 39.2761H90.0391L89.176 41.2009H88.3335L91.651 33.8672H91.6533ZM93.6831 38.5386L92.03 34.8261L90.3656 38.5386H93.6831Z" fill="white"/>
<path d="M97.1284 33.9219H97.9504V40.4427H102.049V41.2031H97.1284V33.9219Z" fill="white"/>
<path d="M106.59 33.9219H107.421L110.074 37.8947L112.727 33.9219H113.559V41.2031H112.737V35.3055L110.083 39.2075H110.042L107.389 35.3169V41.2053H106.588V33.9242L106.59 33.9219Z" fill="white"/>
<path d="M118.267 33.8672H119.036L122.354 41.2009H121.47L120.616 39.2761H116.652L115.789 41.2009H114.947L118.264 33.8672H118.267ZM120.296 38.5386L118.643 34.8261L116.979 38.5386H120.296Z" fill="white"/>
<path d="M123.744 33.9219H126.874C127.769 33.9219 128.486 34.1913 128.945 34.6502C129.299 35.0041 129.507 35.5133 129.507 36.1069C129.507 37.3147 128.676 38.0203 127.53 38.2303L129.767 41.2053H128.758L126.646 38.3764H124.566V41.2053H123.744V33.9242V33.9219ZM126.801 37.6344C127.893 37.6344 128.674 37.0727 128.674 36.116C128.674 35.221 127.989 34.6799 126.813 34.6799H124.566V37.6344H126.804H126.801Z" fill="white"/>
<path d="M131.217 33.9222H132.039V38.2695L136.219 33.9222H137.281L134.16 37.105L137.416 41.2034H136.386L133.589 37.6758L132.039 39.2467V41.2011H131.217V33.9199V33.9222Z" fill="white"/>
<path d="M138.649 33.9219H143.912V34.6708H139.471V37.1572H143.444V37.9061H139.471V40.4542H143.964V41.2031H138.649V33.9219Z" fill="white"/>
<path d="M147.494 34.6799H145.048V33.9219H150.77V34.6799H148.327V41.2031H147.496V34.6799H147.494Z" fill="white"/>
<path d="M152.337 33.9219H153.159V41.2031H152.337V33.9219Z" fill="white"/>
<path d="M155.241 33.9219H156.01L160.597 39.7578V33.9219H161.399V41.2031H160.744L156.04 35.2324V41.2031H155.239V33.9219H155.241Z" fill="white"/>
<path d="M163.086 37.5619C163.086 35.5641 164.554 33.7969 166.739 33.7969C167.967 33.7969 168.725 34.1508 169.454 34.765L168.922 35.3906C168.36 34.902 167.737 34.5595 166.707 34.5595C165.095 34.5595 163.94 35.9225 163.94 37.5665C163.94 39.304 165.054 40.594 166.821 40.594C167.652 40.594 168.422 40.2721 168.922 39.8657V38.0551H166.707V37.3176H169.714V40.2196C169.038 40.8223 168.018 41.3315 166.792 41.3315C164.504 41.3315 163.088 39.667 163.088 37.5665L163.086 37.5619Z" fill="white"/>
<path d="M86.9203 21.3586V5.97656H82.105V26.1739H83.4087H86.9203H94.4709V21.3586H86.9203Z" fill="white"/>
<path d="M110.743 9.56578V5.97656H102.176H98.6649H97.3589V26.1739H98.6649H102.176H110.743V22.587H102.176V17.8698H108.649V14.2829H102.176V9.56578H110.743Z" fill="white"/>
<path d="M149.697 9.56578V5.97656H141.128H137.617H136.313V26.1739H137.617H141.128H149.697V22.587H141.128V17.8698H147.601V14.2829H141.128V9.56578H149.697Z" fill="white"/>
<path d="M164.234 17.8858C166.129 16.7762 167.406 14.7236 167.406 12.3696C167.406 8.83744 165.264 5.97428 161.013 5.97656H152.597V26.1739H157.412V18.7649H159.097L163.077 25.1122C163.49 25.7721 164.216 26.1739 164.995 26.1739H169.36L164.237 17.8858H164.234ZM160.129 15.4337H157.362V9.41052H160.129C161.835 9.41052 162.787 10.6366 162.787 12.3445C162.787 14.0523 161.835 15.4337 160.129 15.4337Z" fill="white"/>
<path d="M128.812 5.53516L123.495 20.2756L118.177 5.53516H113.179L120.995 26.1732H121.367H125.623H125.995L133.81 5.53516H128.812Z" fill="white"/>
<path d="M76.2432 19.6726C75.1176 20.9763 73.4554 21.8051 71.5992 21.8051C68.2086 21.8051 65.4596 19.0562 65.4596 15.6656C65.4596 12.275 68.2086 9.526 71.5992 9.526C73.6427 9.526 75.4464 10.5283 76.5629 12.0627L79.5402 8.79994C77.6132 6.5738 74.7751 5.1582 71.5992 5.1582C65.7975 5.1582 61.0918 9.86163 61.0918 15.6633C61.0918 21.4649 65.7952 26.1707 71.5992 26.1707C74.508 26.1707 77.1405 24.988 79.0425 23.0769L76.2455 19.6703L76.2432 19.6726Z" fill="#0CB4D8"/>
<path d="M71.5971 26.6638C65.5351 26.6638 60.6011 21.7321 60.6011 15.6679C60.6011 9.60363 65.5351 4.67188 71.5971 4.67188C74.7844 4.67188 77.8143 6.06007 79.908 8.48257L80.1934 8.81135L76.5174 12.8412L76.1635 12.3549C75.1018 10.8914 73.3939 10.0192 71.5948 10.0192C68.4782 10.0192 65.9461 12.5535 65.9461 15.6679C65.9461 18.7822 68.4805 21.3165 71.5948 21.3165C73.2341 21.3165 74.7936 20.6019 75.869 19.353L76.2503 18.9123L79.6979 23.1111L79.3851 23.4262C77.3051 25.5131 74.5401 26.6638 71.5948 26.6638H71.5971ZM71.5971 5.65138C66.0739 5.65138 61.5806 10.1447 61.5806 15.6679C61.5806 21.191 66.0739 25.6843 71.5971 25.6843C74.1314 25.6843 76.5197 24.7482 78.3736 23.0426L76.216 20.4147C74.9831 21.6156 73.3277 22.296 71.5971 22.296C67.9416 22.296 64.9689 19.3233 64.9689 15.6679C64.9689 12.0124 67.9439 9.03967 71.5971 9.03967C73.5081 9.03967 75.3324 9.87989 76.5859 11.3138L78.8782 8.80222C76.9855 6.79527 74.3552 5.65366 71.5971 5.65366V5.65138Z" fill="white"/>
</svg>
