<svg width="214" height="542" viewBox="0 0 214 542" fill="none" xmlns="http://www.w3.org/2000/svg">
<path d="M7.64986 5.27273H11.358L16.3239 17.3935H16.5199L21.4858 5.27273H25.1939V22H22.2862V10.5082H22.131L17.5082 21.951H15.3356L10.7127 10.4837H10.5575V22H7.64986V5.27273ZM33.3752 22.245C32.1501 22.245 31.0883 21.9755 30.1899 21.4364C29.2914 20.8974 28.5945 20.1432 28.0989 19.174C27.6089 18.2048 27.3639 17.0722 27.3639 15.7763C27.3639 14.4804 27.6089 13.3451 28.0989 12.3704C28.5945 11.3957 29.2914 10.6388 30.1899 10.0998C31.0883 9.56072 32.1501 9.29119 33.3752 9.29119C34.6004 9.29119 35.6622 9.56072 36.5606 10.0998C37.459 10.6388 38.1533 11.3957 38.6433 12.3704C39.1388 13.3451 39.3866 14.4804 39.3866 15.7763C39.3866 17.0722 39.1388 18.2048 38.6433 19.174C38.1533 20.1432 37.459 20.8974 36.5606 21.4364C35.6622 21.9755 34.6004 22.245 33.3752 22.245ZM33.3916 19.8764C34.0559 19.8764 34.6113 19.694 35.0578 19.3292C35.5043 18.9589 35.8364 18.4634 36.0542 17.8427C36.2775 17.2219 36.3891 16.5304 36.3891 15.7681C36.3891 15.0004 36.2775 14.3061 36.0542 13.6854C35.8364 13.0592 35.5043 12.561 35.0578 12.1907C34.6113 11.8204 34.0559 11.6353 33.3916 11.6353C32.7109 11.6353 32.1446 11.8204 31.6927 12.1907C31.2462 12.561 30.9113 13.0592 30.6881 13.6854C30.4703 14.3061 30.3614 15.0004 30.3614 15.7681C30.3614 16.5304 30.4703 17.2219 30.6881 17.8427C30.9113 18.4634 31.2462 18.9589 31.6927 19.3292C32.1446 19.694 32.7109 19.8764 33.3916 19.8764ZM41.5668 22V5.27273H44.5235V11.5291H44.646C44.7984 11.2242 45.0135 10.9002 45.2912 10.5572C45.5689 10.2087 45.9446 9.91193 46.4183 9.6669C46.8921 9.41643 47.4965 9.29119 48.2315 9.29119C49.2008 9.29119 50.0747 9.53894 50.8534 10.0344C51.6374 10.5245 52.2582 11.2514 52.7156 12.2152C53.1784 13.1735 53.4098 14.3497 53.4098 15.7436C53.4098 17.1212 53.1838 18.2919 52.7319 19.2557C52.28 20.2195 51.6647 20.9545 50.886 21.4609C50.1074 21.9673 49.2253 22.2205 48.2397 22.2205C47.521 22.2205 46.9247 22.1007 46.451 21.8612C45.9773 21.6216 45.5961 21.333 45.3075 20.9954C45.0244 20.6523 44.8039 20.3284 44.646 20.0234H44.4744V22H41.5668ZM44.4663 15.7273C44.4663 16.5386 44.5806 17.2492 44.8093 17.859C45.0435 18.4689 45.3783 18.9453 45.8139 19.2884C46.255 19.6259 46.7886 19.7947 47.4148 19.7947C48.0682 19.7947 48.6154 19.6205 49.0565 19.272C49.4975 18.9181 49.8297 18.4362 50.0529 17.8263C50.2816 17.2111 50.396 16.5114 50.396 15.7273C50.396 14.9486 50.2843 14.2571 50.0611 13.6527C49.8378 13.0483 49.5057 12.5746 49.0646 12.2315C48.6236 11.8885 48.0736 11.717 47.4148 11.717C46.7832 11.717 46.2468 11.883 45.8058 12.2152C45.3647 12.5473 45.0298 13.0129 44.8011 13.6119C44.5779 14.2108 44.4663 14.916 44.4663 15.7273ZM55.4634 22V9.45455H58.4201V22H55.4634ZM56.9499 7.67401C56.4816 7.67401 56.0787 7.51882 55.7411 7.20845C55.4035 6.89264 55.2347 6.5142 55.2347 6.07315C55.2347 5.62666 55.4035 5.24822 55.7411 4.93785C56.0787 4.62204 56.4816 4.46413 56.9499 4.46413C57.4236 4.46413 57.8266 4.62204 58.1587 4.93785C58.4963 5.24822 58.6651 5.62666 58.6651 6.07315C58.6651 6.5142 58.4963 6.89264 58.1587 7.20845C57.8266 7.51882 57.4236 7.67401 56.9499 7.67401ZM63.9571 5.27273V22H61.0005V5.27273H63.9571ZM72.0915 22.245C70.8337 22.245 69.7474 21.9837 68.8326 21.4609C67.9233 20.9328 67.2236 20.1868 66.7336 19.223C66.2435 18.2538 65.9985 17.113 65.9985 15.8008C65.9985 14.5103 66.2435 13.3777 66.7336 12.4031C67.2291 11.4229 67.9206 10.6606 68.8081 10.1161C69.6957 9.56617 70.7384 9.29119 71.9363 9.29119C72.7095 9.29119 73.4392 9.41643 74.1252 9.6669C74.8168 9.91193 75.4266 10.2931 75.9548 10.8104C76.4884 11.3277 76.9077 11.9865 77.2126 12.7869C77.5175 13.5819 77.67 14.5294 77.67 15.6293V16.5359H67.387V14.543H74.8358C74.8304 13.9767 74.7079 13.473 74.4683 13.032C74.2287 12.5855 73.8938 12.2343 73.4637 11.9783C73.039 11.7224 72.5435 11.5945 71.9772 11.5945C71.3728 11.5945 70.8419 11.7415 70.3845 12.0355C69.9271 12.3241 69.5704 12.7053 69.3145 13.179C69.0641 13.6473 68.9361 14.1618 68.9306 14.7227V16.4624C68.9306 17.192 69.0641 17.8182 69.3309 18.3409C69.5977 18.8582 69.9707 19.2557 70.4498 19.5334C70.929 19.8056 71.4898 19.9418 72.1324 19.9418C72.5625 19.9418 72.9518 19.8819 73.3003 19.7621C73.6488 19.6368 73.951 19.4544 74.2069 19.2148C74.4628 18.9753 74.6561 18.6785 74.7868 18.3246L77.5475 18.6349C77.3732 19.3646 77.0411 20.0017 76.551 20.5462C76.0664 21.0852 75.4457 21.5045 74.6888 21.804C73.9319 22.098 73.0662 22.245 72.0915 22.245ZM91.3108 9.45455V11.7415H83.8946V9.45455H91.3108ZM85.7487 22V8.27024C85.7487 7.42625 85.9229 6.72384 86.2714 6.163C86.6253 5.60215 87.099 5.18288 87.6926 4.90518C88.2861 4.62748 88.9449 4.48864 89.6691 4.48864C90.181 4.48864 90.6356 4.52947 91.0331 4.61115C91.4306 4.69283 91.7246 4.76633 91.9152 4.83168L91.3271 7.11861C91.2019 7.08049 91.044 7.04238 90.8534 7.00426C90.6628 6.9607 90.4505 6.93892 90.2163 6.93892C89.6664 6.93892 89.2771 7.07232 89.0484 7.33913C88.8251 7.6005 88.7135 7.97621 88.7135 8.46626V22H85.7487ZM98.1669 22.245C96.9418 22.245 95.88 21.9755 94.9816 21.4364C94.0831 20.8974 93.3862 20.1432 92.8907 19.174C92.4006 18.2048 92.1556 17.0722 92.1556 15.7763C92.1556 14.4804 92.4006 13.3451 92.8907 12.3704C93.3862 11.3957 94.0831 10.6388 94.9816 10.0998C95.88 9.56072 96.9418 9.29119 98.1669 9.29119C99.3921 9.29119 100.454 9.56072 101.352 10.0998C102.251 10.6388 102.945 11.3957 103.435 12.3704C103.931 13.3451 104.178 14.4804 104.178 15.7763C104.178 17.0722 103.931 18.2048 103.435 19.174C102.945 20.1432 102.251 20.8974 101.352 21.4364C100.454 21.9755 99.3921 22.245 98.1669 22.245ZM98.1833 19.8764C98.8476 19.8764 99.403 19.694 99.8495 19.3292C100.296 18.9589 100.628 18.4634 100.846 17.8427C101.069 17.2219 101.181 16.5304 101.181 15.7681C101.181 15.0004 101.069 14.3061 100.846 13.6854C100.628 13.0592 100.296 12.561 99.8495 12.1907C99.403 11.8204 98.8476 11.6353 98.1833 11.6353C97.5026 11.6353 96.9364 11.8204 96.4844 12.1907C96.0379 12.561 95.703 13.0592 95.4798 13.6854C95.262 14.3061 95.1531 15.0004 95.1531 15.7681C95.1531 16.5304 95.262 17.2219 95.4798 17.8427C95.703 18.4634 96.0379 18.9589 96.4844 19.3292C96.9364 19.694 97.5026 19.8764 98.1833 19.8764ZM111.7 22.245C110.475 22.245 109.413 21.9755 108.515 21.4364C107.616 20.8974 106.919 20.1432 106.424 19.174C105.934 18.2048 105.689 17.0722 105.689 15.7763C105.689 14.4804 105.934 13.3451 106.424 12.3704C106.919 11.3957 107.616 10.6388 108.515 10.0998C109.413 9.56072 110.475 9.29119 111.7 9.29119C112.925 9.29119 113.987 9.56072 114.885 10.0998C115.784 10.6388 116.478 11.3957 116.968 12.3704C117.464 13.3451 117.711 14.4804 117.711 15.7763C117.711 17.0722 117.464 18.2048 116.968 19.174C116.478 20.1432 115.784 20.8974 114.885 21.4364C113.987 21.9755 112.925 22.245 111.7 22.245ZM111.716 19.8764C112.381 19.8764 112.936 19.694 113.383 19.3292C113.829 18.9589 114.161 18.4634 114.379 17.8427C114.602 17.2219 114.714 16.5304 114.714 15.7681C114.714 15.0004 114.602 14.3061 114.379 13.6854C114.161 13.0592 113.829 12.561 113.383 12.1907C112.936 11.8204 112.381 11.6353 111.716 11.6353C111.036 11.6353 110.47 11.8204 110.018 12.1907C109.571 12.561 109.236 13.0592 109.013 13.6854C108.795 14.3061 108.686 15.0004 108.686 15.7681C108.686 16.5304 108.795 17.2219 109.013 17.8427C109.236 18.4634 109.571 18.9589 110.018 19.3292C110.47 19.694 111.036 19.8764 111.716 19.8764ZM126.026 9.45455V11.7415H118.814V9.45455H126.026ZM120.594 6.44886H123.551V18.2266C123.551 18.6241 123.611 18.929 123.73 19.1413C123.856 19.3482 124.019 19.4898 124.22 19.5661C124.422 19.6423 124.645 19.6804 124.89 19.6804C125.075 19.6804 125.244 19.6668 125.397 19.6396C125.555 19.6123 125.674 19.5878 125.756 19.5661L126.254 21.8775C126.096 21.9319 125.87 21.9918 125.576 22.0572C125.288 22.1225 124.934 22.1606 124.515 22.1715C123.774 22.1933 123.107 22.0817 122.513 21.8366C121.92 21.5862 121.449 21.1996 121.1 20.6768C120.757 20.1541 120.589 19.5007 120.594 18.7166V6.44886ZM133.457 22.245C132.2 22.245 131.113 21.9837 130.199 21.4609C129.289 20.9328 128.59 20.1868 128.1 19.223C127.609 18.2538 127.364 17.113 127.364 15.8008C127.364 14.5103 127.609 13.3777 128.1 12.4031C128.595 11.4229 129.287 10.6606 130.174 10.1161C131.062 9.56617 132.104 9.29119 133.302 9.29119C134.076 9.29119 134.805 9.41643 135.491 9.6669C136.183 9.91193 136.793 10.2931 137.321 10.8104C137.854 11.3277 138.274 11.9865 138.579 12.7869C138.884 13.5819 139.036 14.5294 139.036 15.6293V16.5359H128.753V14.543H136.202C136.196 13.9767 136.074 13.473 135.834 13.032C135.595 12.5855 135.26 12.2343 134.83 11.9783C134.405 11.7224 133.909 11.5945 133.343 11.5945C132.739 11.5945 132.208 11.7415 131.75 12.0355C131.293 12.3241 130.936 12.7053 130.681 13.179C130.43 13.6473 130.302 14.1618 130.297 14.7227V16.4624C130.297 17.192 130.43 17.8182 130.697 18.3409C130.964 18.8582 131.337 19.2557 131.816 19.5334C132.295 19.8056 132.856 19.9418 133.498 19.9418C133.928 19.9418 134.318 19.8819 134.666 19.7621C135.015 19.6368 135.317 19.4544 135.573 19.2148C135.829 18.9753 136.022 18.6785 136.153 18.3246L138.913 18.6349C138.739 19.3646 138.407 20.0017 137.917 20.5462C137.432 21.0852 136.812 21.5045 136.055 21.804C135.298 22.098 134.432 22.245 133.457 22.245ZM141.077 22V9.45455H143.944V11.5455H144.075C144.304 10.8213 144.696 10.2631 145.251 9.87109C145.812 9.4736 146.452 9.27486 147.17 9.27486C147.334 9.27486 147.516 9.28302 147.718 9.29936C147.924 9.31025 148.096 9.32931 148.232 9.35653V12.0763C148.107 12.0328 147.908 11.9947 147.636 11.962C147.369 11.9239 147.11 11.9048 146.86 11.9048C146.321 11.9048 145.836 12.0219 145.406 12.256C144.981 12.4847 144.647 12.8033 144.402 13.2116C144.156 13.62 144.034 14.091 144.034 14.6246V22H141.077Z" fill="black"/>
<g clip-path="url(#clip0_5595_1630)">
<rect width="428" height="935" transform="translate(0 48)" fill="#24272F"/>
<path d="M73.1477 113V101.364H80.6023V103.131H75.2557V106.29H80.0909V108.057H75.2557V113H73.1477ZM82.1118 113V104.273H84.1686V113H82.1118ZM83.1459 103.034C82.8202 103.034 82.5398 102.926 82.305 102.71C82.0702 102.491 81.9527 102.227 81.9527 101.92C81.9527 101.61 82.0702 101.347 82.305 101.131C82.5398 100.911 82.8202 100.801 83.1459 100.801C83.4755 100.801 83.7558 100.911 83.9868 101.131C84.2217 101.347 84.3391 101.61 84.3391 101.92C84.3391 102.227 84.2217 102.491 83.9868 102.71C83.7558 102.926 83.4755 103.034 83.1459 103.034ZM88.0205 107.886V113H85.9637V104.273H87.9296V105.756H88.0319C88.2326 105.267 88.5527 104.879 88.9921 104.591C89.4353 104.303 89.9826 104.159 90.6341 104.159C91.2364 104.159 91.761 104.288 92.208 104.545C92.6588 104.803 93.0073 105.176 93.2535 105.665C93.5035 106.153 93.6266 106.746 93.6228 107.443V113H91.566V107.761C91.566 107.178 91.4145 106.722 91.1114 106.392C90.8122 106.062 90.3974 105.898 89.8671 105.898C89.5073 105.898 89.1872 105.977 88.9069 106.136C88.6304 106.292 88.4126 106.517 88.2535 106.812C88.0982 107.108 88.0205 107.466 88.0205 107.886ZM98.6323 113.153C97.9467 113.153 97.3331 112.977 96.7914 112.625C96.2498 112.273 95.8217 111.761 95.5073 111.091C95.1929 110.42 95.0357 109.606 95.0357 108.648C95.0357 107.678 95.1948 106.86 95.513 106.193C95.835 105.523 96.2687 105.017 96.8141 104.676C97.3596 104.331 97.9676 104.159 98.638 104.159C99.1494 104.159 99.5698 104.246 99.8994 104.42C100.229 104.591 100.49 104.797 100.683 105.04C100.877 105.278 101.026 105.504 101.132 105.716H101.218V101.364H103.28V113H101.257V111.625H101.132C101.026 111.837 100.873 112.062 100.672 112.301C100.471 112.536 100.206 112.737 99.8766 112.903C99.5471 113.07 99.1323 113.153 98.6323 113.153ZM99.2062 111.466C99.6418 111.466 100.013 111.348 100.32 111.114C100.627 110.875 100.86 110.544 101.019 110.119C101.178 109.695 101.257 109.201 101.257 108.636C101.257 108.072 101.178 107.581 101.019 107.165C100.863 106.748 100.632 106.424 100.326 106.193C100.022 105.962 99.6494 105.847 99.2062 105.847C98.7479 105.847 98.3653 105.966 98.0585 106.205C97.7516 106.443 97.5206 106.773 97.3653 107.193C97.21 107.614 97.1323 108.095 97.1323 108.636C97.1323 109.182 97.21 109.669 97.3653 110.097C97.5244 110.521 97.7573 110.856 98.0641 111.102C98.3748 111.345 98.7554 111.466 99.2062 111.466ZM111.312 113.176C110.759 113.176 110.261 113.078 109.818 112.881C109.378 112.68 109.03 112.384 108.772 111.994C108.518 111.604 108.391 111.123 108.391 110.551C108.391 110.059 108.482 109.652 108.664 109.33C108.846 109.008 109.094 108.75 109.409 108.557C109.723 108.364 110.077 108.218 110.471 108.119C110.869 108.017 111.28 107.943 111.704 107.898C112.215 107.845 112.63 107.797 112.948 107.756C113.266 107.71 113.498 107.642 113.641 107.551C113.789 107.456 113.863 107.311 113.863 107.114V107.08C113.863 106.652 113.736 106.32 113.482 106.085C113.229 105.85 112.863 105.733 112.386 105.733C111.882 105.733 111.482 105.843 111.187 106.062C110.895 106.282 110.698 106.542 110.596 106.841L108.676 106.568C108.827 106.038 109.077 105.595 109.426 105.239C109.774 104.879 110.2 104.61 110.704 104.432C111.208 104.25 111.765 104.159 112.374 104.159C112.795 104.159 113.213 104.208 113.63 104.307C114.047 104.405 114.427 104.568 114.772 104.795C115.117 105.019 115.393 105.324 115.602 105.71C115.814 106.097 115.92 106.58 115.92 107.159V113H113.943V111.801H113.874C113.749 112.044 113.573 112.271 113.346 112.483C113.123 112.691 112.84 112.86 112.499 112.989C112.162 113.114 111.766 113.176 111.312 113.176ZM111.846 111.665C112.259 111.665 112.617 111.583 112.92 111.42C113.223 111.254 113.456 111.034 113.619 110.761C113.785 110.489 113.869 110.191 113.869 109.869V108.841C113.804 108.894 113.695 108.943 113.539 108.989C113.388 109.034 113.217 109.074 113.028 109.108C112.838 109.142 112.651 109.172 112.465 109.199C112.28 109.225 112.119 109.248 111.982 109.267C111.676 109.309 111.401 109.377 111.159 109.472C110.916 109.566 110.725 109.699 110.585 109.869C110.445 110.036 110.374 110.252 110.374 110.517C110.374 110.896 110.513 111.182 110.789 111.375C111.066 111.568 111.418 111.665 111.846 111.665ZM128.215 106.58L126.34 106.784C126.287 106.595 126.194 106.417 126.061 106.25C125.932 106.083 125.758 105.949 125.538 105.847C125.319 105.744 125.05 105.693 124.732 105.693C124.304 105.693 123.944 105.786 123.652 105.972C123.364 106.157 123.222 106.398 123.226 106.693C123.222 106.947 123.315 107.153 123.504 107.312C123.697 107.472 124.016 107.602 124.459 107.705L125.947 108.023C126.773 108.201 127.387 108.483 127.788 108.869C128.194 109.256 128.398 109.761 128.402 110.386C128.398 110.936 128.237 111.42 127.919 111.841C127.605 112.258 127.167 112.583 126.607 112.818C126.046 113.053 125.402 113.17 124.675 113.17C123.607 113.17 122.747 112.947 122.095 112.5C121.444 112.049 121.055 111.422 120.93 110.619L122.936 110.426C123.027 110.82 123.22 111.117 123.516 111.318C123.811 111.519 124.196 111.619 124.669 111.619C125.158 111.619 125.55 111.519 125.845 111.318C126.144 111.117 126.294 110.869 126.294 110.574C126.294 110.324 126.197 110.117 126.004 109.955C125.815 109.792 125.519 109.667 125.118 109.58L123.629 109.267C122.792 109.093 122.173 108.799 121.771 108.386C121.37 107.97 121.171 107.443 121.175 106.807C121.171 106.269 121.317 105.803 121.612 105.409C121.912 105.011 122.326 104.705 122.857 104.489C123.391 104.269 124.006 104.159 124.703 104.159C125.726 104.159 126.531 104.377 127.118 104.812C127.709 105.248 128.074 105.837 128.215 106.58ZM134.136 104.273V105.864H129.119V104.273H134.136ZM130.358 102.182H132.414V110.375C132.414 110.652 132.456 110.864 132.539 111.011C132.627 111.155 132.74 111.254 132.88 111.307C133.02 111.36 133.176 111.386 133.346 111.386C133.475 111.386 133.592 111.377 133.699 111.358C133.808 111.339 133.892 111.322 133.949 111.307L134.295 112.915C134.185 112.953 134.028 112.994 133.824 113.04C133.623 113.085 133.377 113.112 133.085 113.119C132.57 113.134 132.106 113.057 131.693 112.886C131.28 112.712 130.952 112.443 130.71 112.08C130.471 111.716 130.354 111.261 130.358 110.716V102.182ZM139.249 113.17C138.397 113.17 137.658 112.983 137.033 112.608C136.408 112.233 135.924 111.708 135.579 111.034C135.238 110.36 135.067 109.572 135.067 108.67C135.067 107.769 135.238 106.979 135.579 106.301C135.924 105.623 136.408 105.097 137.033 104.722C137.658 104.347 138.397 104.159 139.249 104.159C140.102 104.159 140.84 104.347 141.465 104.722C142.09 105.097 142.573 105.623 142.914 106.301C143.259 106.979 143.431 107.769 143.431 108.67C143.431 109.572 143.259 110.36 142.914 111.034C142.573 111.708 142.09 112.233 141.465 112.608C140.84 112.983 140.102 113.17 139.249 113.17ZM139.261 111.523C139.723 111.523 140.109 111.396 140.42 111.142C140.73 110.884 140.961 110.54 141.113 110.108C141.268 109.676 141.346 109.195 141.346 108.665C141.346 108.131 141.268 107.648 141.113 107.216C140.961 106.78 140.73 106.434 140.42 106.176C140.109 105.919 139.723 105.79 139.261 105.79C138.787 105.79 138.393 105.919 138.079 106.176C137.768 106.434 137.535 106.78 137.38 107.216C137.228 107.648 137.153 108.131 137.153 108.665C137.153 109.195 137.228 109.676 137.38 110.108C137.535 110.54 137.768 110.884 138.079 111.142C138.393 111.396 138.787 111.523 139.261 111.523ZM144.857 113V104.273H146.851V105.727H146.942C147.101 105.223 147.374 104.835 147.76 104.562C148.15 104.286 148.595 104.148 149.095 104.148C149.209 104.148 149.336 104.153 149.476 104.165C149.62 104.172 149.739 104.186 149.834 104.205V106.097C149.747 106.066 149.609 106.04 149.419 106.017C149.234 105.991 149.054 105.977 148.88 105.977C148.505 105.977 148.167 106.059 147.868 106.222C147.573 106.381 147.34 106.602 147.169 106.886C146.999 107.17 146.914 107.498 146.914 107.869V113H144.857ZM154.385 113.17C153.51 113.17 152.754 112.989 152.118 112.625C151.485 112.258 150.998 111.739 150.658 111.068C150.317 110.394 150.146 109.6 150.146 108.688C150.146 107.79 150.317 107.002 150.658 106.324C151.002 105.642 151.483 105.112 152.101 104.733C152.718 104.35 153.444 104.159 154.277 104.159C154.815 104.159 155.322 104.246 155.8 104.42C156.281 104.591 156.705 104.856 157.072 105.216C157.444 105.576 157.735 106.034 157.947 106.591C158.159 107.144 158.266 107.803 158.266 108.568V109.199H151.112V107.812H156.294C156.29 107.419 156.205 107.068 156.038 106.761C155.872 106.451 155.639 106.206 155.339 106.028C155.044 105.85 154.699 105.761 154.305 105.761C153.885 105.761 153.516 105.864 153.197 106.068C152.879 106.269 152.631 106.534 152.453 106.864C152.279 107.189 152.19 107.547 152.186 107.938V109.148C152.186 109.655 152.279 110.091 152.464 110.455C152.65 110.814 152.909 111.091 153.243 111.284C153.576 111.473 153.966 111.568 154.413 111.568C154.712 111.568 154.983 111.527 155.226 111.443C155.468 111.356 155.678 111.229 155.856 111.062C156.034 110.896 156.169 110.689 156.26 110.443L158.18 110.659C158.059 111.167 157.828 111.61 157.487 111.989C157.15 112.364 156.718 112.655 156.192 112.864C155.665 113.068 155.063 113.17 154.385 113.17Z" fill="white"/>
<path d="M73.1477 168V156.364H80.7159V158.131H75.2557V161.29H80.3239V163.057H75.2557V166.233H80.7614V168H73.1477ZM82.4556 168V159.273H84.4215V160.756H84.5238C84.7056 160.256 85.0067 159.866 85.4272 159.585C85.8476 159.301 86.3495 159.159 86.9328 159.159C87.5238 159.159 88.0219 159.303 88.4272 159.591C88.8363 159.875 89.1241 160.263 89.2908 160.756H89.3817C89.5749 160.271 89.9006 159.884 90.359 159.597C90.8211 159.305 91.3684 159.159 92.001 159.159C92.8041 159.159 93.4594 159.413 93.9669 159.92C94.4745 160.428 94.7283 161.169 94.7283 162.142V168H92.6658V162.46C92.6658 161.919 92.5219 161.523 92.234 161.273C91.9461 161.019 91.5938 160.892 91.1772 160.892C90.6809 160.892 90.2927 161.047 90.0124 161.358C89.7359 161.665 89.5976 162.064 89.5976 162.557V168H87.5806V162.375C87.5806 161.924 87.4442 161.564 87.1715 161.295C86.9025 161.027 86.5503 160.892 86.1147 160.892C85.8192 160.892 85.5503 160.968 85.3078 161.119C85.0654 161.267 84.8722 161.477 84.7283 161.75C84.5844 162.019 84.5124 162.333 84.5124 162.693V168H82.4556ZM99.0063 168.176C98.4533 168.176 97.9552 168.078 97.512 167.881C97.0726 167.68 96.7241 167.384 96.4665 166.994C96.2127 166.604 96.0859 166.123 96.0859 165.551C96.0859 165.059 96.1768 164.652 96.3586 164.33C96.5404 164.008 96.7885 163.75 97.1029 163.557C97.4173 163.364 97.7715 163.218 98.1654 163.119C98.5631 163.017 98.9741 162.943 99.3984 162.898C99.9097 162.845 100.324 162.797 100.643 162.756C100.961 162.71 101.192 162.642 101.336 162.551C101.484 162.456 101.557 162.311 101.557 162.114V162.08C101.557 161.652 101.431 161.32 101.177 161.085C100.923 160.85 100.557 160.733 100.08 160.733C99.5764 160.733 99.1768 160.843 98.8813 161.062C98.5896 161.282 98.3927 161.542 98.2904 161.841L96.3699 161.568C96.5215 161.038 96.7715 160.595 97.1199 160.239C97.4684 159.879 97.8946 159.61 98.3984 159.432C98.9021 159.25 99.459 159.159 100.069 159.159C100.489 159.159 100.908 159.208 101.324 159.307C101.741 159.405 102.122 159.568 102.467 159.795C102.811 160.019 103.088 160.324 103.296 160.71C103.508 161.097 103.614 161.58 103.614 162.159V168H101.637V166.801H101.569C101.444 167.044 101.268 167.271 101.04 167.483C100.817 167.691 100.535 167.86 100.194 167.989C99.8567 168.114 99.4609 168.176 99.0063 168.176ZM99.5404 166.665C99.9533 166.665 100.311 166.583 100.614 166.42C100.917 166.254 101.15 166.034 101.313 165.761C101.48 165.489 101.563 165.191 101.563 164.869V163.841C101.499 163.894 101.389 163.943 101.234 163.989C101.082 164.034 100.912 164.074 100.722 164.108C100.533 164.142 100.345 164.172 100.16 164.199C99.9741 164.225 99.8131 164.248 99.6768 164.267C99.3699 164.309 99.0953 164.377 98.8529 164.472C98.6105 164.566 98.4192 164.699 98.279 164.869C98.1389 165.036 98.0688 165.252 98.0688 165.517C98.0688 165.896 98.2071 166.182 98.4836 166.375C98.7601 166.568 99.1124 166.665 99.5404 166.665ZM105.362 168V159.273H107.419V168H105.362ZM106.397 158.034C106.071 158.034 105.79 157.926 105.556 157.71C105.321 157.491 105.203 157.227 105.203 156.92C105.203 156.61 105.321 156.347 105.556 156.131C105.79 155.911 106.071 155.801 106.397 155.801C106.726 155.801 107.006 155.911 107.237 156.131C107.472 156.347 107.59 156.61 107.59 156.92C107.59 157.227 107.472 157.491 107.237 157.71C107.006 157.926 106.726 158.034 106.397 158.034ZM111.271 156.364V168H109.214V156.364H111.271ZM123.613 161.58L121.738 161.784C121.685 161.595 121.592 161.417 121.459 161.25C121.33 161.083 121.156 160.949 120.937 160.847C120.717 160.744 120.448 160.693 120.13 160.693C119.702 160.693 119.342 160.786 119.05 160.972C118.762 161.157 118.62 161.398 118.624 161.693C118.62 161.947 118.713 162.153 118.902 162.312C119.096 162.472 119.414 162.602 119.857 162.705L121.346 163.023C122.171 163.201 122.785 163.483 123.187 163.869C123.592 164.256 123.796 164.761 123.8 165.386C123.796 165.936 123.635 166.42 123.317 166.841C123.003 167.258 122.565 167.583 122.005 167.818C121.444 168.053 120.8 168.17 120.073 168.17C119.005 168.17 118.145 167.947 117.493 167.5C116.842 167.049 116.454 166.422 116.329 165.619L118.334 165.426C118.425 165.82 118.618 166.117 118.914 166.318C119.209 166.519 119.594 166.619 120.067 166.619C120.556 166.619 120.948 166.519 121.243 166.318C121.543 166.117 121.692 165.869 121.692 165.574C121.692 165.324 121.596 165.117 121.402 164.955C121.213 164.792 120.918 164.667 120.516 164.58L119.027 164.267C118.19 164.093 117.571 163.799 117.169 163.386C116.768 162.97 116.569 162.443 116.573 161.807C116.569 161.269 116.715 160.803 117.01 160.409C117.31 160.011 117.724 159.705 118.255 159.489C118.789 159.269 119.404 159.159 120.101 159.159C121.124 159.159 121.929 159.377 122.516 159.812C123.107 160.248 123.473 160.837 123.613 161.58ZM125.176 168V159.273H127.233V168H125.176ZM126.21 158.034C125.885 158.034 125.604 157.926 125.369 157.71C125.135 157.491 125.017 157.227 125.017 156.92C125.017 156.61 125.135 156.347 125.369 156.131C125.604 155.911 125.885 155.801 126.21 155.801C126.54 155.801 126.82 155.911 127.051 156.131C127.286 156.347 127.403 156.61 127.403 156.92C127.403 157.227 127.286 157.491 127.051 157.71C126.82 157.926 126.54 158.034 126.21 158.034ZM132.824 171.455C132.085 171.455 131.45 171.354 130.92 171.153C130.39 170.956 129.964 170.691 129.642 170.358C129.32 170.025 129.096 169.655 128.971 169.25L130.824 168.801C130.907 168.972 131.028 169.14 131.187 169.307C131.346 169.477 131.56 169.617 131.829 169.727C132.102 169.841 132.445 169.898 132.858 169.898C133.441 169.898 133.924 169.756 134.306 169.472C134.689 169.191 134.88 168.729 134.88 168.085V166.432H134.778C134.672 166.644 134.517 166.862 134.312 167.085C134.111 167.309 133.844 167.496 133.511 167.648C133.181 167.799 132.767 167.875 132.267 167.875C131.596 167.875 130.988 167.718 130.443 167.403C129.901 167.085 129.469 166.612 129.147 165.983C128.829 165.35 128.67 164.559 128.67 163.608C128.67 162.65 128.829 161.841 129.147 161.182C129.469 160.519 129.903 160.017 130.449 159.676C130.994 159.331 131.602 159.159 132.272 159.159C132.784 159.159 133.204 159.246 133.534 159.42C133.867 159.591 134.132 159.797 134.329 160.04C134.526 160.278 134.676 160.504 134.778 160.716H134.892V159.273H136.92V168.142C136.92 168.888 136.742 169.506 136.386 169.994C136.03 170.483 135.543 170.848 134.926 171.091C134.308 171.333 133.608 171.455 132.824 171.455ZM132.841 166.261C133.276 166.261 133.647 166.155 133.954 165.943C134.261 165.731 134.494 165.426 134.653 165.028C134.812 164.631 134.892 164.153 134.892 163.597C134.892 163.047 134.812 162.566 134.653 162.153C134.498 161.741 134.267 161.42 133.96 161.193C133.657 160.962 133.284 160.847 132.841 160.847C132.382 160.847 132 160.966 131.693 161.205C131.386 161.443 131.155 161.771 131 162.188C130.844 162.6 130.767 163.07 130.767 163.597C130.767 164.131 130.844 164.598 131 165C131.159 165.398 131.392 165.708 131.699 165.932C132.009 166.152 132.39 166.261 132.841 166.261ZM140.765 162.886V168H138.708V159.273H140.674V160.756H140.776C140.977 160.267 141.297 159.879 141.736 159.591C142.18 159.303 142.727 159.159 143.379 159.159C143.981 159.159 144.505 159.288 144.952 159.545C145.403 159.803 145.752 160.176 145.998 160.665C146.248 161.153 146.371 161.746 146.367 162.443V168H144.31V162.761C144.31 162.178 144.159 161.722 143.856 161.392C143.557 161.062 143.142 160.898 142.611 160.898C142.252 160.898 141.932 160.977 141.651 161.136C141.375 161.292 141.157 161.517 140.998 161.812C140.843 162.108 140.765 162.466 140.765 162.886ZM153.428 162.307V164H148.189V162.307H153.428ZM160.834 164.33V159.273H162.891V168H160.896V166.449H160.805C160.608 166.937 160.284 167.337 159.834 167.648C159.387 167.958 158.836 168.114 158.18 168.114C157.608 168.114 157.103 167.987 156.663 167.733C156.228 167.475 155.887 167.102 155.641 166.614C155.394 166.121 155.271 165.527 155.271 164.83V159.273H157.328V164.511C157.328 165.064 157.48 165.504 157.783 165.83C158.086 166.155 158.483 166.318 158.976 166.318C159.279 166.318 159.572 166.244 159.856 166.097C160.141 165.949 160.373 165.729 160.555 165.438C160.741 165.142 160.834 164.773 160.834 164.33ZM164.686 171.273V159.273H166.708V160.716H166.828C166.934 160.504 167.083 160.278 167.276 160.04C167.47 159.797 167.731 159.591 168.061 159.42C168.39 159.246 168.811 159.159 169.322 159.159C169.996 159.159 170.604 159.331 171.146 159.676C171.691 160.017 172.123 160.523 172.441 161.193C172.763 161.86 172.924 162.678 172.924 163.648C172.924 164.606 172.767 165.42 172.453 166.091C172.138 166.761 171.71 167.273 171.169 167.625C170.627 167.977 170.013 168.153 169.328 168.153C168.828 168.153 168.413 168.07 168.083 167.903C167.754 167.737 167.489 167.536 167.288 167.301C167.091 167.062 166.937 166.837 166.828 166.625H166.742V171.273H164.686ZM166.703 163.636C166.703 164.201 166.782 164.695 166.941 165.119C167.104 165.544 167.337 165.875 167.64 166.114C167.947 166.348 168.318 166.466 168.754 166.466C169.208 166.466 169.589 166.345 169.896 166.102C170.203 165.856 170.434 165.521 170.589 165.097C170.748 164.669 170.828 164.182 170.828 163.636C170.828 163.095 170.75 162.614 170.595 162.193C170.439 161.773 170.208 161.443 169.901 161.205C169.595 160.966 169.212 160.847 168.754 160.847C168.314 160.847 167.941 160.962 167.634 161.193C167.328 161.424 167.095 161.748 166.936 162.165C166.78 162.581 166.703 163.072 166.703 163.636Z" fill="white"/>
<path d="M83.108 215.29H80.983C80.9223 214.941 80.8106 214.633 80.6477 214.364C80.4848 214.091 80.2822 213.86 80.0398 213.67C79.7973 213.481 79.5208 213.339 79.2102 213.244C78.9034 213.146 78.572 213.097 78.2159 213.097C77.5833 213.097 77.0227 213.256 76.5341 213.574C76.0455 213.888 75.6629 214.35 75.3864 214.96C75.1098 215.566 74.9716 216.307 74.9716 217.182C74.9716 218.072 75.1098 218.822 75.3864 219.432C75.6667 220.038 76.0492 220.496 76.5341 220.807C77.0227 221.114 77.5814 221.267 78.2102 221.267C78.5587 221.267 78.8845 221.222 79.1875 221.131C79.4943 221.036 79.7689 220.898 80.0114 220.716C80.2576 220.534 80.464 220.311 80.6307 220.045C80.8011 219.78 80.9186 219.477 80.983 219.136L83.108 219.148C83.0284 219.701 82.8561 220.22 82.5909 220.705C82.3295 221.189 81.9867 221.617 81.5625 221.989C81.1383 222.356 80.642 222.644 80.0739 222.852C79.5057 223.057 78.875 223.159 78.1818 223.159C77.1591 223.159 76.2462 222.922 75.4432 222.449C74.6402 221.975 74.0076 221.292 73.5455 220.398C73.0833 219.504 72.8523 218.432 72.8523 217.182C72.8523 215.928 73.0852 214.856 73.5511 213.966C74.017 213.072 74.6515 212.388 75.4545 211.915C76.2576 211.441 77.1667 211.205 78.1818 211.205C78.8295 211.205 79.4318 211.295 79.9886 211.477C80.5455 211.659 81.0417 211.926 81.4773 212.278C81.9129 212.627 82.2708 213.055 82.5511 213.562C82.8352 214.066 83.0208 214.642 83.108 215.29ZM88.4343 223.17C87.582 223.17 86.8434 222.983 86.2184 222.608C85.5934 222.233 85.1085 221.708 84.7638 221.034C84.4229 220.36 84.2524 219.572 84.2524 218.67C84.2524 217.769 84.4229 216.979 84.7638 216.301C85.1085 215.623 85.5934 215.097 86.2184 214.722C86.8434 214.347 87.582 214.159 88.4343 214.159C89.2865 214.159 90.0252 214.347 90.6502 214.722C91.2752 215.097 91.7581 215.623 92.099 216.301C92.4437 216.979 92.6161 217.769 92.6161 218.67C92.6161 219.572 92.4437 220.36 92.099 221.034C91.7581 221.708 91.2752 222.233 90.6502 222.608C90.0252 222.983 89.2865 223.17 88.4343 223.17ZM88.4456 221.523C88.9077 221.523 89.2941 221.396 89.6047 221.142C89.9153 220.884 90.1464 220.54 90.2979 220.108C90.4532 219.676 90.5309 219.195 90.5309 218.665C90.5309 218.131 90.4532 217.648 90.2979 217.216C90.1464 216.78 89.9153 216.434 89.6047 216.176C89.2941 215.919 88.9077 215.79 88.4456 215.79C87.9721 215.79 87.5782 215.919 87.2638 216.176C86.9532 216.434 86.7202 216.78 86.5649 217.216C86.4134 217.648 86.3377 218.131 86.3377 218.665C86.3377 219.195 86.4134 219.676 86.5649 220.108C86.7202 220.54 86.9532 220.884 87.2638 221.142C87.5782 221.396 87.9721 221.523 88.4456 221.523ZM96.0986 217.886V223H94.0418V214.273H96.0077V215.756H96.11C96.3108 215.267 96.6308 214.879 97.0702 214.591C97.5134 214.303 98.0608 214.159 98.7123 214.159C99.3145 214.159 99.8392 214.288 100.286 214.545C100.737 214.803 101.085 215.176 101.332 215.665C101.582 216.153 101.705 216.746 101.701 217.443V223H99.6441V217.761C99.6441 217.178 99.4926 216.722 99.1895 216.392C98.8903 216.062 98.4755 215.898 97.9452 215.898C97.5854 215.898 97.2653 215.977 96.985 216.136C96.7085 216.292 96.4907 216.517 96.3316 216.812C96.1763 217.108 96.0986 217.466 96.0986 217.886ZM107.83 214.273V215.864H102.813V214.273H107.83ZM104.051 212.182H106.108V220.375C106.108 220.652 106.15 220.864 106.233 221.011C106.32 221.155 106.434 221.254 106.574 221.307C106.714 221.36 106.87 221.386 107.04 221.386C107.169 221.386 107.286 221.377 107.392 221.358C107.502 221.339 107.585 221.322 107.642 221.307L107.989 222.915C107.879 222.953 107.722 222.994 107.517 223.04C107.317 223.085 107.07 223.112 106.779 223.119C106.263 223.134 105.799 223.057 105.387 222.886C104.974 222.712 104.646 222.443 104.404 222.08C104.165 221.716 104.048 221.261 104.051 220.716V212.182ZM111.741 223.176C111.188 223.176 110.69 223.078 110.247 222.881C109.808 222.68 109.459 222.384 109.202 221.994C108.948 221.604 108.821 221.123 108.821 220.551C108.821 220.059 108.912 219.652 109.094 219.33C109.275 219.008 109.524 218.75 109.838 218.557C110.152 218.364 110.506 218.218 110.9 218.119C111.298 218.017 111.709 217.943 112.133 217.898C112.645 217.845 113.059 217.797 113.378 217.756C113.696 217.71 113.927 217.642 114.071 217.551C114.219 217.456 114.292 217.311 114.292 217.114V217.08C114.292 216.652 114.166 216.32 113.912 216.085C113.658 215.85 113.292 215.733 112.815 215.733C112.311 215.733 111.912 215.843 111.616 216.062C111.325 216.282 111.128 216.542 111.025 216.841L109.105 216.568C109.256 216.038 109.506 215.595 109.855 215.239C110.203 214.879 110.63 214.61 111.133 214.432C111.637 214.25 112.194 214.159 112.804 214.159C113.224 214.159 113.643 214.208 114.059 214.307C114.476 214.405 114.857 214.568 115.202 214.795C115.546 215.019 115.823 215.324 116.031 215.71C116.243 216.097 116.349 216.58 116.349 217.159V223H114.372V221.801H114.304C114.179 222.044 114.003 222.271 113.775 222.483C113.552 222.691 113.27 222.86 112.929 222.989C112.592 223.114 112.196 223.176 111.741 223.176ZM112.275 221.665C112.688 221.665 113.046 221.583 113.349 221.42C113.652 221.254 113.885 221.034 114.048 220.761C114.215 220.489 114.298 220.191 114.298 219.869V218.841C114.234 218.894 114.124 218.943 113.969 218.989C113.817 219.034 113.647 219.074 113.457 219.108C113.268 219.142 113.08 219.172 112.895 219.199C112.709 219.225 112.548 219.248 112.412 219.267C112.105 219.309 111.83 219.377 111.588 219.472C111.345 219.566 111.154 219.699 111.014 219.869C110.874 220.036 110.804 220.252 110.804 220.517C110.804 220.896 110.942 221.182 111.219 221.375C111.495 221.568 111.847 221.665 112.275 221.665ZM121.904 223.17C121.033 223.17 120.285 222.979 119.66 222.597C119.039 222.214 118.56 221.686 118.222 221.011C117.889 220.333 117.722 219.553 117.722 218.67C117.722 217.784 117.893 217.002 118.234 216.324C118.575 215.642 119.056 215.112 119.677 214.733C120.302 214.35 121.041 214.159 121.893 214.159C122.601 214.159 123.228 214.29 123.774 214.551C124.323 214.809 124.76 215.174 125.086 215.648C125.412 216.117 125.597 216.667 125.643 217.295H123.677C123.597 216.875 123.408 216.525 123.109 216.244C122.813 215.96 122.418 215.818 121.921 215.818C121.501 215.818 121.132 215.932 120.813 216.159C120.495 216.383 120.247 216.705 120.069 217.125C119.895 217.545 119.808 218.049 119.808 218.636C119.808 219.231 119.895 219.742 120.069 220.17C120.243 220.595 120.488 220.922 120.802 221.153C121.12 221.381 121.493 221.494 121.921 221.494C122.224 221.494 122.495 221.437 122.734 221.324C122.976 221.206 123.179 221.038 123.342 220.818C123.505 220.598 123.616 220.331 123.677 220.017H125.643C125.594 220.634 125.412 221.182 125.097 221.659C124.783 222.133 124.355 222.504 123.813 222.773C123.272 223.038 122.635 223.17 121.904 223.17ZM131.37 214.273V215.864H126.353V214.273H131.37ZM127.591 212.182H129.648V220.375C129.648 220.652 129.69 220.864 129.773 221.011C129.86 221.155 129.974 221.254 130.114 221.307C130.254 221.36 130.41 221.386 130.58 221.386C130.709 221.386 130.826 221.377 130.932 221.358C131.042 221.339 131.125 221.322 131.182 221.307L131.529 222.915C131.419 222.953 131.262 222.994 131.057 223.04C130.857 223.085 130.61 223.112 130.319 223.119C129.803 223.134 129.339 223.057 128.927 222.886C128.514 222.712 128.186 222.443 127.944 222.08C127.705 221.716 127.588 221.261 127.591 220.716V212.182ZM141.981 219.33V214.273H144.038V223H142.044V221.449H141.953C141.756 221.937 141.432 222.337 140.981 222.648C140.534 222.958 139.983 223.114 139.328 223.114C138.756 223.114 138.25 222.987 137.811 222.733C137.375 222.475 137.034 222.102 136.788 221.614C136.542 221.121 136.419 220.527 136.419 219.83V214.273H138.476V219.511C138.476 220.064 138.627 220.504 138.93 220.83C139.233 221.155 139.631 221.318 140.123 221.318C140.426 221.318 140.72 221.244 141.004 221.097C141.288 220.949 141.521 220.729 141.703 220.438C141.888 220.142 141.981 219.773 141.981 219.33ZM152.731 216.58L150.856 216.784C150.803 216.595 150.71 216.417 150.577 216.25C150.449 216.083 150.274 215.949 150.055 215.847C149.835 215.744 149.566 215.693 149.248 215.693C148.82 215.693 148.46 215.786 148.168 215.972C147.88 216.157 147.738 216.398 147.742 216.693C147.738 216.947 147.831 217.153 148.021 217.312C148.214 217.472 148.532 217.602 148.975 217.705L150.464 218.023C151.29 218.201 151.903 218.483 152.305 218.869C152.71 219.256 152.915 219.761 152.918 220.386C152.915 220.936 152.754 221.42 152.435 221.841C152.121 222.258 151.683 222.583 151.123 222.818C150.562 223.053 149.918 223.17 149.191 223.17C148.123 223.17 147.263 222.947 146.611 222.5C145.96 222.049 145.572 221.422 145.447 220.619L147.452 220.426C147.543 220.82 147.736 221.117 148.032 221.318C148.327 221.519 148.712 221.619 149.185 221.619C149.674 221.619 150.066 221.519 150.361 221.318C150.661 221.117 150.81 220.869 150.81 220.574C150.81 220.324 150.714 220.117 150.521 219.955C150.331 219.792 150.036 219.667 149.634 219.58L148.146 219.267C147.308 219.093 146.689 218.799 146.288 218.386C145.886 217.97 145.687 217.443 145.691 216.807C145.687 216.269 145.833 215.803 146.129 215.409C146.428 215.011 146.843 214.705 147.373 214.489C147.907 214.269 148.522 214.159 149.219 214.159C150.242 214.159 151.047 214.377 151.634 214.812C152.225 215.248 152.591 215.837 152.731 216.58Z" fill="white"/>
<path d="M83.108 310.29H80.983C80.9223 309.941 80.8106 309.633 80.6477 309.364C80.4848 309.091 80.2822 308.86 80.0398 308.67C79.7973 308.481 79.5208 308.339 79.2102 308.244C78.9034 308.146 78.572 308.097 78.2159 308.097C77.5833 308.097 77.0227 308.256 76.5341 308.574C76.0455 308.888 75.6629 309.35 75.3864 309.96C75.1098 310.566 74.9716 311.307 74.9716 312.182C74.9716 313.072 75.1098 313.822 75.3864 314.432C75.6667 315.038 76.0492 315.496 76.5341 315.807C77.0227 316.114 77.5814 316.267 78.2102 316.267C78.5587 316.267 78.8845 316.222 79.1875 316.131C79.4943 316.036 79.7689 315.898 80.0114 315.716C80.2576 315.534 80.464 315.311 80.6307 315.045C80.8011 314.78 80.9186 314.477 80.983 314.136L83.108 314.148C83.0284 314.701 82.8561 315.22 82.5909 315.705C82.3295 316.189 81.9867 316.617 81.5625 316.989C81.1383 317.356 80.642 317.644 80.0739 317.852C79.5057 318.057 78.875 318.159 78.1818 318.159C77.1591 318.159 76.2462 317.922 75.4432 317.449C74.6402 316.975 74.0076 316.292 73.5455 315.398C73.0833 314.504 72.8523 313.432 72.8523 312.182C72.8523 310.928 73.0852 309.856 73.5511 308.966C74.017 308.072 74.6515 307.388 75.4545 306.915C76.2576 306.441 77.1667 306.205 78.1818 306.205C78.8295 306.205 79.4318 306.295 79.9886 306.477C80.5455 306.659 81.0417 306.926 81.4773 307.278C81.9129 307.627 82.2708 308.055 82.5511 308.562C82.8352 309.066 83.0208 309.642 83.108 310.29ZM87.1388 318.176C86.5858 318.176 86.0877 318.078 85.6445 317.881C85.2051 317.68 84.8566 317.384 84.599 316.994C84.3452 316.604 84.2184 316.123 84.2184 315.551C84.2184 315.059 84.3093 314.652 84.4911 314.33C84.6729 314.008 84.921 313.75 85.2354 313.557C85.5498 313.364 85.904 313.218 86.2979 313.119C86.6956 313.017 87.1066 312.943 87.5309 312.898C88.0422 312.845 88.457 312.797 88.7752 312.756C89.0934 312.71 89.3244 312.642 89.4684 312.551C89.6161 312.456 89.6899 312.311 89.6899 312.114V312.08C89.6899 311.652 89.563 311.32 89.3093 311.085C89.0555 310.85 88.6899 310.733 88.2127 310.733C87.7089 310.733 87.3093 310.843 87.0138 311.062C86.7221 311.282 86.5252 311.542 86.4229 311.841L84.5024 311.568C84.654 311.038 84.904 310.595 85.2524 310.239C85.6009 309.879 86.0271 309.61 86.5309 309.432C87.0346 309.25 87.5915 309.159 88.2013 309.159C88.6218 309.159 89.0403 309.208 89.457 309.307C89.8737 309.405 90.2543 309.568 90.599 309.795C90.9437 310.019 91.2202 310.324 91.4286 310.71C91.6407 311.097 91.7468 311.58 91.7468 312.159V318H89.7695V316.801H89.7013C89.5763 317.044 89.4002 317.271 89.1729 317.483C88.9494 317.691 88.6672 317.86 88.3263 317.989C87.9892 318.114 87.5934 318.176 87.1388 318.176ZM87.6729 316.665C88.0858 316.665 88.4437 316.583 88.7468 316.42C89.0498 316.254 89.2827 316.034 89.4456 315.761C89.6123 315.489 89.6956 315.191 89.6956 314.869V313.841C89.6312 313.894 89.5214 313.943 89.3661 313.989C89.2146 314.034 89.0441 314.074 88.8547 314.108C88.6653 314.142 88.4778 314.172 88.2922 314.199C88.1066 314.225 87.9456 314.248 87.8093 314.267C87.5024 314.309 87.2278 314.377 86.9854 314.472C86.743 314.566 86.5517 314.699 86.4115 314.869C86.2714 315.036 86.2013 315.252 86.2013 315.517C86.2013 315.896 86.3396 316.182 86.6161 316.375C86.8926 316.568 87.2449 316.665 87.6729 316.665ZM93.4949 318V309.273H95.4893V310.727H95.5802C95.7393 310.223 96.012 309.835 96.3984 309.562C96.7885 309.286 97.2336 309.148 97.7336 309.148C97.8472 309.148 97.9741 309.153 98.1143 309.165C98.2582 309.172 98.3775 309.186 98.4722 309.205V311.097C98.3851 311.066 98.2468 311.04 98.0574 311.017C97.8718 310.991 97.6919 310.977 97.5177 310.977C97.1427 310.977 96.8055 311.059 96.5063 311.222C96.2109 311.381 95.9779 311.602 95.8074 311.886C95.637 312.17 95.5518 312.498 95.5518 312.869V318H93.4949ZM103.023 318.17C102.148 318.17 101.392 317.989 100.756 317.625C100.123 317.258 99.6366 316.739 99.2957 316.068C98.9548 315.394 98.7843 314.6 98.7843 313.688C98.7843 312.79 98.9548 312.002 99.2957 311.324C99.6404 310.642 100.121 310.112 100.739 309.733C101.356 309.35 102.082 309.159 102.915 309.159C103.453 309.159 103.96 309.246 104.438 309.42C104.919 309.591 105.343 309.856 105.71 310.216C106.082 310.576 106.373 311.034 106.585 311.591C106.798 312.144 106.904 312.803 106.904 313.568V314.199H99.7502V312.812H104.932C104.928 312.419 104.843 312.068 104.676 311.761C104.51 311.451 104.277 311.206 103.978 311.028C103.682 310.85 103.337 310.761 102.943 310.761C102.523 310.761 102.154 310.864 101.835 311.068C101.517 311.269 101.269 311.534 101.091 311.864C100.917 312.189 100.828 312.547 100.824 312.938V314.148C100.824 314.655 100.917 315.091 101.103 315.455C101.288 315.814 101.548 316.091 101.881 316.284C102.214 316.473 102.604 316.568 103.051 316.568C103.351 316.568 103.621 316.527 103.864 316.443C104.106 316.356 104.317 316.229 104.495 316.062C104.673 315.896 104.807 315.689 104.898 315.443L106.818 315.659C106.697 316.167 106.466 316.61 106.125 316.989C105.788 317.364 105.356 317.655 104.83 317.864C104.303 318.068 103.701 318.17 103.023 318.17ZM112.187 318.17C111.312 318.17 110.557 317.989 109.92 317.625C109.288 317.258 108.801 316.739 108.46 316.068C108.119 315.394 107.949 314.6 107.949 313.688C107.949 312.79 108.119 312.002 108.46 311.324C108.805 310.642 109.286 310.112 109.903 309.733C110.521 309.35 111.246 309.159 112.079 309.159C112.617 309.159 113.125 309.246 113.602 309.42C114.083 309.591 114.507 309.856 114.875 310.216C115.246 310.576 115.538 311.034 115.75 311.591C115.962 312.144 116.068 312.803 116.068 313.568V314.199H108.915V312.812H114.096C114.093 312.419 114.007 312.068 113.841 311.761C113.674 311.451 113.441 311.206 113.142 311.028C112.846 310.85 112.502 310.761 112.108 310.761C111.687 310.761 111.318 310.864 111 311.068C110.682 311.269 110.434 311.534 110.256 311.864C110.081 312.189 109.992 312.547 109.988 312.938V314.148C109.988 314.655 110.081 315.091 110.267 315.455C110.452 315.814 110.712 316.091 111.045 316.284C111.379 316.473 111.769 316.568 112.216 316.568C112.515 316.568 112.786 316.527 113.028 316.443C113.271 316.356 113.481 316.229 113.659 316.062C113.837 315.896 113.971 315.689 114.062 315.443L115.983 315.659C115.862 316.167 115.631 316.61 115.29 316.989C114.952 317.364 114.521 317.655 113.994 317.864C113.468 318.068 112.865 318.17 112.187 318.17ZM117.488 318V309.273H119.482V310.727H119.573C119.732 310.223 120.005 309.835 120.391 309.562C120.782 309.286 121.227 309.148 121.727 309.148C121.84 309.148 121.967 309.153 122.107 309.165C122.251 309.172 122.371 309.186 122.465 309.205V311.097C122.378 311.066 122.24 311.04 122.051 311.017C121.865 310.991 121.685 310.977 121.511 310.977C121.136 310.977 120.799 311.059 120.499 311.222C120.204 311.381 119.971 311.602 119.801 311.886C119.63 312.17 119.545 312.498 119.545 312.869V318H117.488ZM130.41 311.58L128.535 311.784C128.482 311.595 128.389 311.417 128.256 311.25C128.127 311.083 127.953 310.949 127.733 310.847C127.514 310.744 127.245 310.693 126.927 310.693C126.499 310.693 126.139 310.786 125.847 310.972C125.559 311.157 125.417 311.398 125.421 311.693C125.417 311.947 125.51 312.153 125.699 312.312C125.893 312.472 126.211 312.602 126.654 312.705L128.143 313.023C128.968 313.201 129.582 313.483 129.983 313.869C130.389 314.256 130.593 314.761 130.597 315.386C130.593 315.936 130.432 316.42 130.114 316.841C129.8 317.258 129.362 317.583 128.802 317.818C128.241 318.053 127.597 318.17 126.87 318.17C125.802 318.17 124.942 317.947 124.29 317.5C123.639 317.049 123.25 316.422 123.125 315.619L125.131 315.426C125.222 315.82 125.415 316.117 125.711 316.318C126.006 316.519 126.391 316.619 126.864 316.619C127.353 316.619 127.745 316.519 128.04 316.318C128.339 316.117 128.489 315.869 128.489 315.574C128.489 315.324 128.393 315.117 128.199 314.955C128.01 314.792 127.714 314.667 127.313 314.58L125.824 314.267C124.987 314.093 124.368 313.799 123.966 313.386C123.565 312.97 123.366 312.443 123.37 311.807C123.366 311.269 123.512 310.803 123.807 310.409C124.107 310.011 124.521 309.705 125.052 309.489C125.586 309.269 126.201 309.159 126.898 309.159C127.921 309.159 128.726 309.377 129.313 309.812C129.904 310.248 130.269 310.837 130.41 311.58Z" fill="white"/>
<path d="M82.7102 361.364V373H80.8352L75.3523 365.074H75.2557V373H73.1477V361.364H75.0341L80.5114 369.295H80.6136V361.364H82.7102ZM88.4598 373.17C87.5848 373.17 86.8291 372.989 86.1928 372.625C85.5602 372.258 85.0735 371.739 84.7326 371.068C84.3916 370.394 84.2212 369.6 84.2212 368.688C84.2212 367.79 84.3916 367.002 84.7326 366.324C85.0773 365.642 85.5583 365.112 86.1757 364.733C86.7932 364.35 87.5185 364.159 88.3519 364.159C88.8898 364.159 89.3973 364.246 89.8746 364.42C90.3557 364.591 90.7799 364.856 91.1473 365.216C91.5185 365.576 91.8102 366.034 92.0223 366.591C92.2345 367.144 92.3405 367.803 92.3405 368.568V369.199H85.1871V367.812H90.3689C90.3651 367.419 90.2799 367.068 90.1132 366.761C89.9466 366.451 89.7136 366.206 89.4144 366.028C89.1189 365.85 88.7742 365.761 88.3803 365.761C87.9598 365.761 87.5905 365.864 87.2723 366.068C86.9541 366.269 86.706 366.534 86.528 366.864C86.3538 367.189 86.2648 367.547 86.261 367.938V369.148C86.261 369.655 86.3538 370.091 86.5394 370.455C86.725 370.814 86.9845 371.091 87.3178 371.284C87.6511 371.473 88.0413 371.568 88.4882 371.568C88.7875 371.568 89.0583 371.527 89.3007 371.443C89.5432 371.356 89.7534 371.229 89.9314 371.062C90.1095 370.896 90.2439 370.689 90.3348 370.443L92.2553 370.659C92.1341 371.167 91.903 371.61 91.5621 371.989C91.225 372.364 90.7932 372.655 90.2666 372.864C89.7401 373.068 89.1379 373.17 88.4598 373.17ZM95.5148 373L93.0489 364.273H95.1455L96.6796 370.409H96.7591L98.3273 364.273H100.401L101.969 370.375H102.055L103.566 364.273H105.668L103.197 373H101.055L99.4182 367.102H99.2989L97.6626 373H95.5148ZM113.682 366.58L111.807 366.784C111.754 366.595 111.661 366.417 111.529 366.25C111.4 366.083 111.226 365.949 111.006 365.847C110.786 365.744 110.517 365.693 110.199 365.693C109.771 365.693 109.411 365.786 109.12 365.972C108.832 366.157 108.69 366.398 108.693 366.693C108.69 366.947 108.782 367.153 108.972 367.312C109.165 367.472 109.483 367.602 109.926 367.705L111.415 368.023C112.241 368.201 112.854 368.483 113.256 368.869C113.661 369.256 113.866 369.761 113.87 370.386C113.866 370.936 113.705 371.42 113.387 371.841C113.072 372.258 112.635 372.583 112.074 372.818C111.513 373.053 110.87 373.17 110.142 373.17C109.074 373.17 108.214 372.947 107.563 372.5C106.911 372.049 106.523 371.422 106.398 370.619L108.404 370.426C108.495 370.82 108.688 371.117 108.983 371.318C109.279 371.519 109.663 371.619 110.137 371.619C110.625 371.619 111.017 371.519 111.313 371.318C111.612 371.117 111.762 370.869 111.762 370.574C111.762 370.324 111.665 370.117 111.472 369.955C111.282 369.792 110.987 369.667 110.585 369.58L109.097 369.267C108.26 369.093 107.64 368.799 107.239 368.386C106.837 367.97 106.638 367.443 106.642 366.807C106.638 366.269 106.784 365.803 107.08 365.409C107.379 365.011 107.794 364.705 108.324 364.489C108.858 364.269 109.474 364.159 110.171 364.159C111.193 364.159 111.998 364.377 112.585 364.812C113.176 365.248 113.542 365.837 113.682 366.58Z" fill="white"/>
<path d="M73.1477 428V416.364H80.6023V418.131H75.2557V421.29H80.0909V423.057H75.2557V428H73.1477ZM85.3348 428.17C84.4598 428.17 83.7041 427.989 83.0678 427.625C82.4352 427.258 81.9485 426.739 81.6076 426.068C81.2666 425.394 81.0962 424.6 81.0962 423.688C81.0962 422.79 81.2666 422.002 81.6076 421.324C81.9523 420.642 82.4333 420.112 83.0507 419.733C83.6682 419.35 84.3935 419.159 85.2269 419.159C85.7648 419.159 86.2723 419.246 86.7496 419.42C87.2307 419.591 87.6549 419.856 88.0223 420.216C88.3935 420.576 88.6852 421.034 88.8973 421.591C89.1095 422.144 89.2155 422.803 89.2155 423.568V424.199H82.0621V422.812H87.2439C87.2401 422.419 87.1549 422.068 86.9882 421.761C86.8216 421.451 86.5886 421.206 86.2894 421.028C85.9939 420.85 85.6492 420.761 85.2553 420.761C84.8348 420.761 84.4655 420.864 84.1473 421.068C83.8291 421.269 83.581 421.534 83.403 421.864C83.2288 422.189 83.1398 422.547 83.136 422.938V424.148C83.136 424.655 83.2288 425.091 83.4144 425.455C83.6 425.814 83.8595 426.091 84.1928 426.284C84.5261 426.473 84.9163 426.568 85.3632 426.568C85.6625 426.568 85.9333 426.527 86.1757 426.443C86.4182 426.356 86.6284 426.229 86.8064 426.062C86.9845 425.896 87.1189 425.689 87.2098 425.443L89.1303 425.659C89.0091 426.167 88.778 426.61 88.4371 426.989C88.1 427.364 87.6682 427.655 87.1416 427.864C86.6151 428.068 86.0129 428.17 85.3348 428.17ZM94.4992 428.17C93.6242 428.17 92.8685 427.989 92.2322 427.625C91.5996 427.258 91.1128 426.739 90.7719 426.068C90.431 425.394 90.2606 424.6 90.2606 423.688C90.2606 422.79 90.431 422.002 90.7719 421.324C91.1166 420.642 91.5977 420.112 92.2151 419.733C92.8325 419.35 93.5579 419.159 94.3913 419.159C94.9291 419.159 95.4367 419.246 95.914 419.42C96.395 419.591 96.8193 419.856 97.1867 420.216C97.5579 420.576 97.8496 421.034 98.0617 421.591C98.2738 422.144 98.3799 422.803 98.3799 423.568V424.199H91.2265V422.812H96.4083C96.4045 422.419 96.3193 422.068 96.1526 421.761C95.9859 421.451 95.753 421.206 95.4538 421.028C95.1583 420.85 94.8136 420.761 94.4197 420.761C93.9992 420.761 93.6299 420.864 93.3117 421.068C92.9935 421.269 92.7454 421.534 92.5674 421.864C92.3931 422.189 92.3041 422.547 92.3003 422.938V424.148C92.3003 424.655 92.3931 425.091 92.5788 425.455C92.7644 425.814 93.0238 426.091 93.3572 426.284C93.6905 426.473 94.0806 426.568 94.5276 426.568C94.8269 426.568 95.0977 426.527 95.3401 426.443C95.5825 426.356 95.7928 426.229 95.9708 426.062C96.1488 425.896 96.2833 425.689 96.3742 425.443L98.2947 425.659C98.1734 426.167 97.9424 426.61 97.6015 426.989C97.2644 427.364 96.8325 427.655 96.306 427.864C95.7795 428.068 95.1772 428.17 94.4992 428.17ZM103.039 428.153C102.353 428.153 101.739 427.977 101.198 427.625C100.656 427.273 100.228 426.761 99.9136 426.091C99.5992 425.42 99.442 424.606 99.442 423.648C99.442 422.678 99.6011 421.86 99.9193 421.193C100.241 420.523 100.675 420.017 101.22 419.676C101.766 419.331 102.374 419.159 103.044 419.159C103.556 419.159 103.976 419.246 104.306 419.42C104.635 419.591 104.897 419.797 105.09 420.04C105.283 420.278 105.433 420.504 105.539 420.716H105.624V416.364H107.686V428H105.664V426.625H105.539C105.433 426.837 105.279 427.062 105.078 427.301C104.878 427.536 104.612 427.737 104.283 427.903C103.953 428.07 103.539 428.153 103.039 428.153ZM103.612 426.466C104.048 426.466 104.419 426.348 104.726 426.114C105.033 425.875 105.266 425.544 105.425 425.119C105.584 424.695 105.664 424.201 105.664 423.636C105.664 423.072 105.584 422.581 105.425 422.165C105.27 421.748 105.039 421.424 104.732 421.193C104.429 420.962 104.056 420.847 103.612 420.847C103.154 420.847 102.772 420.966 102.465 421.205C102.158 421.443 101.927 421.773 101.772 422.193C101.616 422.614 101.539 423.095 101.539 423.636C101.539 424.182 101.616 424.669 101.772 425.097C101.931 425.521 102.164 425.856 102.47 426.102C102.781 426.345 103.162 426.466 103.612 426.466ZM109.649 428V416.364H111.706V420.716H111.791C111.897 420.504 112.047 420.278 112.24 420.04C112.433 419.797 112.694 419.591 113.024 419.42C113.354 419.246 113.774 419.159 114.285 419.159C114.96 419.159 115.568 419.331 116.109 419.676C116.655 420.017 117.086 420.523 117.405 421.193C117.727 421.86 117.888 422.678 117.888 423.648C117.888 424.606 117.73 425.42 117.416 426.091C117.102 426.761 116.674 427.273 116.132 427.625C115.59 427.977 114.977 428.153 114.291 428.153C113.791 428.153 113.376 428.07 113.047 427.903C112.717 427.737 112.452 427.536 112.251 427.301C112.054 427.062 111.901 426.837 111.791 426.625H111.672V428H109.649ZM111.666 423.636C111.666 424.201 111.746 424.695 111.905 425.119C112.068 425.544 112.3 425.875 112.604 426.114C112.91 426.348 113.282 426.466 113.717 426.466C114.172 426.466 114.552 426.345 114.859 426.102C115.166 425.856 115.397 425.521 115.552 425.097C115.711 424.669 115.791 424.182 115.791 423.636C115.791 423.095 115.713 422.614 115.558 422.193C115.403 421.773 115.172 421.443 114.865 421.205C114.558 420.966 114.175 420.847 113.717 420.847C113.278 420.847 112.905 420.962 112.598 421.193C112.291 421.424 112.058 421.748 111.899 422.165C111.744 422.581 111.666 423.072 111.666 423.636ZM121.828 428.176C121.275 428.176 120.776 428.078 120.333 427.881C119.894 427.68 119.545 427.384 119.288 426.994C119.034 426.604 118.907 426.123 118.907 425.551C118.907 425.059 118.998 424.652 119.18 424.33C119.362 424.008 119.61 423.75 119.924 423.557C120.239 423.364 120.593 423.218 120.987 423.119C121.384 423.017 121.795 422.943 122.22 422.898C122.731 422.845 123.146 422.797 123.464 422.756C123.782 422.71 124.013 422.642 124.157 422.551C124.305 422.456 124.379 422.311 124.379 422.114V422.08C124.379 421.652 124.252 421.32 123.998 421.085C123.744 420.85 123.379 420.733 122.901 420.733C122.398 420.733 121.998 420.843 121.703 421.062C121.411 421.282 121.214 421.542 121.112 421.841L119.191 421.568C119.343 421.038 119.593 420.595 119.941 420.239C120.29 419.879 120.716 419.61 121.22 419.432C121.723 419.25 122.28 419.159 122.89 419.159C123.311 419.159 123.729 419.208 124.146 419.307C124.562 419.405 124.943 419.568 125.288 419.795C125.632 420.019 125.909 420.324 126.117 420.71C126.329 421.097 126.436 421.58 126.436 422.159V428H124.458V426.801H124.39C124.265 427.044 124.089 427.271 123.862 427.483C123.638 427.691 123.356 427.86 123.015 427.989C122.678 428.114 122.282 428.176 121.828 428.176ZM122.362 426.665C122.775 426.665 123.132 426.583 123.436 426.42C123.739 426.254 123.971 426.034 124.134 425.761C124.301 425.489 124.384 425.191 124.384 424.869V423.841C124.32 423.894 124.21 423.943 124.055 423.989C123.903 424.034 123.733 424.074 123.543 424.108C123.354 424.142 123.167 424.172 122.981 424.199C122.795 424.225 122.634 424.248 122.498 424.267C122.191 424.309 121.917 424.377 121.674 424.472C121.432 424.566 121.24 424.699 121.1 424.869C120.96 425.036 120.89 425.252 120.89 425.517C120.89 425.896 121.028 426.182 121.305 426.375C121.581 426.568 121.934 426.665 122.362 426.665ZM131.991 428.17C131.119 428.17 130.371 427.979 129.746 427.597C129.125 427.214 128.646 426.686 128.309 426.011C127.975 425.333 127.809 424.553 127.809 423.67C127.809 422.784 127.979 422.002 128.32 421.324C128.661 420.642 129.142 420.112 129.763 419.733C130.388 419.35 131.127 419.159 131.979 419.159C132.687 419.159 133.314 419.29 133.86 419.551C134.409 419.809 134.847 420.174 135.172 420.648C135.498 421.117 135.684 421.667 135.729 422.295H133.763C133.684 421.875 133.494 421.525 133.195 421.244C132.9 420.96 132.504 420.818 132.008 420.818C131.587 420.818 131.218 420.932 130.9 421.159C130.581 421.383 130.333 421.705 130.155 422.125C129.981 422.545 129.894 423.049 129.894 423.636C129.894 424.231 129.981 424.742 130.155 425.17C130.33 425.595 130.574 425.922 130.888 426.153C131.206 426.381 131.58 426.494 132.008 426.494C132.311 426.494 132.581 426.437 132.82 426.324C133.062 426.206 133.265 426.038 133.428 425.818C133.591 425.598 133.703 425.331 133.763 425.017H135.729C135.68 425.634 135.498 426.182 135.184 426.659C134.869 427.133 134.441 427.504 133.9 427.773C133.358 428.038 132.722 428.17 131.991 428.17ZM138.973 425.261L138.967 422.778H139.297L142.433 419.273H144.837L140.979 423.568H140.553L138.973 425.261ZM137.098 428V416.364H139.155V428H137.098ZM142.575 428L139.734 424.028L141.121 422.58L145.036 428H142.575Z" fill="white"/>
<path d="M73.1477 523V511.364H75.2557V521.233H80.3807V523H73.1477ZM85.663 523.17C84.788 523.17 84.0323 522.989 83.3959 522.625C82.7633 522.258 82.2766 521.739 81.9357 521.068C81.5948 520.394 81.4243 519.6 81.4243 518.688C81.4243 517.79 81.5948 517.002 81.9357 516.324C82.2804 515.642 82.7614 515.112 83.3789 514.733C83.9963 514.35 84.7217 514.159 85.555 514.159C86.0929 514.159 86.6005 514.246 87.0777 514.42C87.5588 514.591 87.983 514.856 88.3505 515.216C88.7217 515.576 89.0133 516.034 89.2255 516.591C89.4376 517.144 89.5436 517.803 89.5436 518.568V519.199H82.3902V517.812H87.572C87.5683 517.419 87.483 517.068 87.3164 516.761C87.1497 516.451 86.9167 516.206 86.6175 516.028C86.322 515.85 85.9773 515.761 85.5834 515.761C85.163 515.761 84.7936 515.864 84.4755 516.068C84.1573 516.269 83.9092 516.534 83.7311 516.864C83.5569 517.189 83.4679 517.547 83.4641 517.938V519.148C83.4641 519.655 83.5569 520.091 83.7425 520.455C83.9281 520.814 84.1876 521.091 84.5209 521.284C84.8542 521.473 85.2444 521.568 85.6914 521.568C85.9906 521.568 86.2614 521.527 86.5039 521.443C86.7463 521.356 86.9565 521.229 87.1345 521.062C87.3126 520.896 87.447 520.689 87.538 520.443L89.4584 520.659C89.3372 521.167 89.1061 521.61 88.7652 521.989C88.4281 522.364 87.9963 522.655 87.4698 522.864C86.9433 523.068 86.341 523.17 85.663 523.17ZM94.7591 526.455C94.0205 526.455 93.386 526.354 92.8557 526.153C92.3254 525.956 91.8993 525.691 91.5773 525.358C91.2554 525.025 91.0319 524.655 90.9069 524.25L92.7591 523.801C92.8425 523.972 92.9637 524.14 93.1228 524.307C93.2819 524.477 93.4959 524.617 93.7648 524.727C94.0376 524.841 94.3804 524.898 94.7932 524.898C95.3766 524.898 95.8595 524.756 96.2421 524.472C96.6247 524.191 96.816 523.729 96.816 523.085V521.432H96.7137C96.6076 521.644 96.4523 521.862 96.2478 522.085C96.047 522.309 95.78 522.496 95.4466 522.648C95.1171 522.799 94.7023 522.875 94.2023 522.875C93.5319 522.875 92.9239 522.718 92.3785 522.403C91.8368 522.085 91.405 521.612 91.083 520.983C90.7648 520.35 90.6057 519.559 90.6057 518.608C90.6057 517.65 90.7648 516.841 91.083 516.182C91.405 515.519 91.8387 515.017 92.3841 514.676C92.9296 514.331 93.5376 514.159 94.208 514.159C94.7194 514.159 95.1398 514.246 95.4694 514.42C95.8027 514.591 96.0679 514.797 96.2648 515.04C96.4618 515.278 96.6114 515.504 96.7137 515.716H96.8273V514.273H98.8557V523.142C98.8557 523.888 98.6777 524.506 98.3216 524.994C97.9656 525.483 97.4788 525.848 96.8614 526.091C96.244 526.333 95.5432 526.455 94.7591 526.455ZM94.7762 521.261C95.2118 521.261 95.583 521.155 95.8898 520.943C96.1966 520.731 96.4296 520.426 96.5887 520.028C96.7478 519.631 96.8273 519.153 96.8273 518.597C96.8273 518.047 96.7478 517.566 96.5887 517.153C96.4334 516.741 96.2023 516.42 95.8955 516.193C95.5925 515.962 95.2194 515.847 94.7762 515.847C94.3179 515.847 93.9353 515.966 93.6285 516.205C93.3216 516.443 93.0906 516.771 92.9353 517.188C92.78 517.6 92.7023 518.07 92.7023 518.597C92.7023 519.131 92.78 519.598 92.9353 520C93.0944 520.398 93.3273 520.708 93.6341 520.932C93.9448 521.152 94.3254 521.261 94.7762 521.261ZM103.155 523.176C102.602 523.176 102.104 523.078 101.661 522.881C101.221 522.68 100.873 522.384 100.615 521.994C100.361 521.604 100.235 521.123 100.235 520.551C100.235 520.059 100.326 519.652 100.507 519.33C100.689 519.008 100.937 518.75 101.252 518.557C101.566 518.364 101.92 518.218 102.314 518.119C102.712 518.017 103.123 517.943 103.547 517.898C104.058 517.845 104.473 517.797 104.791 517.756C105.11 517.71 105.341 517.642 105.485 517.551C105.632 517.456 105.706 517.311 105.706 517.114V517.08C105.706 516.652 105.579 516.32 105.326 516.085C105.072 515.85 104.706 515.733 104.229 515.733C103.725 515.733 103.326 515.843 103.03 516.062C102.738 516.282 102.541 516.542 102.439 516.841L100.519 516.568C100.67 516.038 100.92 515.595 101.269 515.239C101.617 514.879 102.043 514.61 102.547 514.432C103.051 514.25 103.608 514.159 104.218 514.159C104.638 514.159 105.057 514.208 105.473 514.307C105.89 514.405 106.271 514.568 106.615 514.795C106.96 515.019 107.236 515.324 107.445 515.71C107.657 516.097 107.763 516.58 107.763 517.159V523H105.786V521.801H105.718C105.593 522.044 105.416 522.271 105.189 522.483C104.966 522.691 104.683 522.86 104.343 522.989C104.005 523.114 103.61 523.176 103.155 523.176ZM103.689 521.665C104.102 521.665 104.46 521.583 104.763 521.42C105.066 521.254 105.299 521.034 105.462 520.761C105.629 520.489 105.712 520.191 105.712 519.869V518.841C105.647 518.894 105.538 518.943 105.382 518.989C105.231 519.034 105.06 519.074 104.871 519.108C104.682 519.142 104.494 519.172 104.308 519.199C104.123 519.225 103.962 519.248 103.826 519.267C103.519 519.309 103.244 519.377 103.002 519.472C102.759 519.566 102.568 519.699 102.428 519.869C102.288 520.036 102.218 520.252 102.218 520.517C102.218 520.896 102.356 521.182 102.632 521.375C102.909 521.568 103.261 521.665 103.689 521.665ZM111.568 511.364V523H109.511V511.364H111.568ZM120.489 523.17C119.694 523.17 119.01 523.027 118.438 522.739C117.866 522.451 117.425 522.062 117.114 521.574C116.807 521.081 116.654 520.527 116.654 519.909C116.654 519.443 116.749 519.03 116.938 518.67C117.131 518.311 117.396 517.977 117.733 517.67C118.074 517.364 118.468 517.059 118.915 516.756L120.978 515.352C121.281 515.155 121.51 514.947 121.665 514.727C121.824 514.508 121.904 514.25 121.904 513.955C121.904 513.705 121.798 513.468 121.586 513.244C121.377 513.021 121.089 512.909 120.722 512.909C120.476 512.909 120.258 512.968 120.069 513.085C119.883 513.199 119.737 513.348 119.631 513.534C119.529 513.72 119.478 513.917 119.478 514.125C119.478 514.379 119.548 514.636 119.688 514.898C119.832 515.159 120.018 515.43 120.245 515.71C120.476 515.991 120.722 516.288 120.983 516.602L126.444 523H124.216L119.682 517.807C119.345 517.413 119.019 517.025 118.705 516.642C118.394 516.259 118.139 515.862 117.938 515.449C117.741 515.032 117.643 514.581 117.643 514.097C117.643 513.547 117.769 513.057 118.023 512.625C118.277 512.189 118.631 511.847 119.086 511.597C119.544 511.347 120.08 511.222 120.694 511.222C121.307 511.222 121.834 511.343 122.273 511.585C122.713 511.828 123.052 512.15 123.29 512.551C123.529 512.953 123.648 513.39 123.648 513.864C123.648 514.413 123.512 514.905 123.239 515.341C122.966 515.773 122.588 516.165 122.103 516.517L119.75 518.239C119.364 518.519 119.088 518.803 118.921 519.091C118.754 519.375 118.671 519.617 118.671 519.818C118.671 520.125 118.749 520.403 118.904 520.653C119.059 520.903 119.277 521.104 119.557 521.256C119.841 521.403 120.173 521.477 120.552 521.477C120.968 521.477 121.379 521.384 121.785 521.199C122.19 521.009 122.559 520.741 122.893 520.392C123.226 520.044 123.491 519.627 123.688 519.142C123.885 518.653 123.983 518.112 123.983 517.517H125.75C125.75 518.252 125.669 518.892 125.506 519.438C125.343 519.979 125.133 520.438 124.875 520.812C124.618 521.184 124.345 521.481 124.057 521.705C123.966 521.769 123.879 521.833 123.796 521.898C123.713 521.962 123.625 522.027 123.535 522.091C123.125 522.462 122.646 522.735 122.097 522.909C121.552 523.083 121.016 523.17 120.489 523.17ZM130.95 526.273V514.273H132.973V515.716H133.092C133.198 515.504 133.348 515.278 133.541 515.04C133.734 514.797 133.995 514.591 134.325 514.42C134.654 514.246 135.075 514.159 135.586 514.159C136.261 514.159 136.869 514.331 137.41 514.676C137.956 515.017 138.387 515.523 138.706 516.193C139.028 516.86 139.189 517.678 139.189 518.648C139.189 519.606 139.031 520.42 138.717 521.091C138.403 521.761 137.975 522.273 137.433 522.625C136.891 522.977 136.278 523.153 135.592 523.153C135.092 523.153 134.677 523.07 134.348 522.903C134.018 522.737 133.753 522.536 133.552 522.301C133.355 522.062 133.202 521.837 133.092 521.625H133.007V526.273H130.95ZM132.967 518.636C132.967 519.201 133.047 519.695 133.206 520.119C133.369 520.544 133.601 520.875 133.904 521.114C134.211 521.348 134.583 521.466 135.018 521.466C135.473 521.466 135.853 521.345 136.16 521.102C136.467 520.856 136.698 520.521 136.853 520.097C137.012 519.669 137.092 519.182 137.092 518.636C137.092 518.095 137.014 517.614 136.859 517.193C136.704 516.773 136.473 516.443 136.166 516.205C135.859 515.966 135.476 515.847 135.018 515.847C134.579 515.847 134.206 515.962 133.899 516.193C133.592 516.424 133.359 516.748 133.2 517.165C133.045 517.581 132.967 518.072 132.967 518.636ZM140.63 523V514.273H142.624V515.727H142.715C142.874 515.223 143.147 514.835 143.533 514.562C143.924 514.286 144.369 514.148 144.869 514.148C144.982 514.148 145.109 514.153 145.249 514.165C145.393 514.172 145.513 514.186 145.607 514.205V516.097C145.52 516.066 145.382 516.04 145.192 516.017C145.007 515.991 144.827 515.977 144.653 515.977C144.278 515.977 143.941 516.059 143.641 516.222C143.346 516.381 143.113 516.602 142.942 516.886C142.772 517.17 142.687 517.498 142.687 517.869V523H140.63ZM146.654 523V514.273H148.711V523H146.654ZM147.688 513.034C147.362 513.034 147.082 512.926 146.847 512.71C146.612 512.491 146.495 512.227 146.495 511.92C146.495 511.61 146.612 511.347 146.847 511.131C147.082 510.911 147.362 510.801 147.688 510.801C148.017 510.801 148.298 510.911 148.529 511.131C148.764 511.347 148.881 511.61 148.881 511.92C148.881 512.227 148.764 512.491 148.529 512.71C148.298 512.926 148.017 513.034 147.688 513.034ZM158.301 514.273L155.193 523H152.92L149.812 514.273H152.006L154.011 520.756H154.102L156.114 514.273H158.301ZM161.666 523.176C161.113 523.176 160.615 523.078 160.171 522.881C159.732 522.68 159.383 522.384 159.126 521.994C158.872 521.604 158.745 521.123 158.745 520.551C158.745 520.059 158.836 519.652 159.018 519.33C159.2 519.008 159.448 518.75 159.762 518.557C160.077 518.364 160.431 518.218 160.825 518.119C161.223 518.017 161.633 517.943 162.058 517.898C162.569 517.845 162.984 517.797 163.302 517.756C163.62 517.71 163.851 517.642 163.995 517.551C164.143 517.456 164.217 517.311 164.217 517.114V517.08C164.217 516.652 164.09 516.32 163.836 516.085C163.582 515.85 163.217 515.733 162.74 515.733C162.236 515.733 161.836 515.843 161.541 516.062C161.249 516.282 161.052 516.542 160.95 516.841L159.029 516.568C159.181 516.038 159.431 515.595 159.779 515.239C160.128 514.879 160.554 514.61 161.058 514.432C161.562 514.25 162.118 514.159 162.728 514.159C163.149 514.159 163.567 514.208 163.984 514.307C164.401 514.405 164.781 514.568 165.126 514.795C165.471 515.019 165.747 515.324 165.955 515.71C166.168 516.097 166.274 516.58 166.274 517.159V523H164.296V521.801H164.228C164.103 522.044 163.927 522.271 163.7 522.483C163.476 522.691 163.194 522.86 162.853 522.989C162.516 523.114 162.12 523.176 161.666 523.176ZM162.2 521.665C162.613 521.665 162.971 521.583 163.274 521.42C163.577 521.254 163.81 521.034 163.973 520.761C164.139 520.489 164.223 520.191 164.223 519.869V518.841C164.158 518.894 164.048 518.943 163.893 518.989C163.741 519.034 163.571 519.074 163.382 519.108C163.192 519.142 163.005 519.172 162.819 519.199C162.633 519.225 162.473 519.248 162.336 519.267C162.029 519.309 161.755 519.377 161.512 519.472C161.27 519.566 161.079 519.699 160.938 519.869C160.798 520.036 160.728 520.252 160.728 520.517C160.728 520.896 160.866 521.182 161.143 521.375C161.419 521.568 161.772 521.665 162.2 521.665ZM171.829 523.17C170.957 523.17 170.209 522.979 169.584 522.597C168.963 522.214 168.484 521.686 168.147 521.011C167.813 520.333 167.647 519.553 167.647 518.67C167.647 517.784 167.817 517.002 168.158 516.324C168.499 515.642 168.98 515.112 169.601 514.733C170.226 514.35 170.965 514.159 171.817 514.159C172.526 514.159 173.152 514.29 173.698 514.551C174.247 514.809 174.685 515.174 175.01 515.648C175.336 516.117 175.522 516.667 175.567 517.295H173.601C173.522 516.875 173.332 516.525 173.033 516.244C172.738 515.96 172.342 515.818 171.846 515.818C171.425 515.818 171.056 515.932 170.738 516.159C170.42 516.383 170.171 516.705 169.993 517.125C169.819 517.545 169.732 518.049 169.732 518.636C169.732 519.231 169.819 519.742 169.993 520.17C170.168 520.595 170.412 520.922 170.726 521.153C171.045 521.381 171.418 521.494 171.846 521.494C172.149 521.494 172.42 521.437 172.658 521.324C172.901 521.206 173.103 521.038 173.266 520.818C173.429 520.598 173.541 520.331 173.601 520.017H175.567C175.518 520.634 175.336 521.182 175.022 521.659C174.707 522.133 174.279 522.504 173.738 522.773C173.196 523.038 172.56 523.17 171.829 523.17ZM178.215 526.273C177.934 526.273 177.675 526.25 177.436 526.205C177.201 526.163 177.014 526.114 176.874 526.057L177.351 524.455C177.65 524.542 177.917 524.583 178.152 524.58C178.387 524.576 178.593 524.502 178.771 524.358C178.953 524.218 179.107 523.983 179.232 523.653L179.408 523.182L176.243 514.273H178.425L180.436 520.864H180.527L182.544 514.273H184.732L181.237 524.057C181.074 524.519 180.859 524.915 180.59 525.244C180.321 525.578 179.991 525.831 179.601 526.006C179.215 526.184 178.752 526.273 178.215 526.273Z" fill="white"/>
</g>
<defs>
<clipPath id="clip0_5595_1630">
<rect width="214" height="493.5" fill="white" transform="translate(0 48)"/>
</clipPath>
</defs>
</svg>
